<?xml version="1.0" encoding="UTF-8" standalone="no"?>
<!-- Created with Inkscape (http://www.inkscape.org/) -->

<svg
   xmlns:dc="http://purl.org/dc/elements/1.1/"
   xmlns:cc="http://creativecommons.org/ns#"
   xmlns:rdf="http://www.w3.org/1999/02/22-rdf-syntax-ns#"
   xmlns:svg="http://www.w3.org/2000/svg"
   xmlns="http://www.w3.org/2000/svg"
   xmlns:xlink="http://www.w3.org/1999/xlink"
   xmlns:sodipodi="http://sodipodi.sourceforge.net/DTD/sodipodi-0.dtd"
   xmlns:inkscape="http://www.inkscape.org/namespaces/inkscape"
   width="512"
   height="512"
   viewBox="0 0 135.46666 135.46667"
   version="1.1"
   id="svg8"
   inkscape:version="0.92.4 (5da689c313, 2019-01-14)"
   sodipodi:docname="001_simple_letter.svg">
  <title
     id="title4630">Simple Letter Logo</title>
  <defs
     id="defs2">
    <linearGradient
       inkscape:collect="always"
       id="linearGradient4608">
      <stop
         style="stop-color:#ff0000;stop-opacity:1;"
         offset="0"
         id="stop4604" />
      <stop
         style="stop-color:#ffc300;stop-opacity:1"
         offset="1"
         id="stop4606" />
    </linearGradient>
    <linearGradient
       inkscape:collect="always"
       xlink:href="#linearGradient4608"
       id="linearGradient4610"
       x1="487.5"
       y1="350"
       x2="750"
       y2="350"
       gradientUnits="userSpaceOnUse"
       gradientTransform="matrix(0.26458333,0,0,0.26458333,-91.016665,123.43333)" />
    <linearGradient
       inkscape:collect="always"
       xlink:href="#linearGradient4608"
       id="linearGradient4618"
       x1="675"
       y1="400"
       x2="450"
       y2="400"
       gradientUnits="userSpaceOnUse"
       gradientTransform="matrix(0.26458333,0,0,0.26458333,-91.016666,123.43333)" />
  </defs>
  <sodipodi:namedview
     id="base"
     pagecolor="#ffffff"
     bordercolor="#666666"
     borderopacity="1.0"
     inkscape:pageopacity="0.0"
     inkscape:pageshadow="2"
     inkscape:zoom="1"
     inkscape:cx="181.58208"
     inkscape:cy="222.74687"
     inkscape:document-units="px"
     inkscape:current-layer="layer1"
     showgrid="false"
     inkscape:pagecheckerboard="true"
     units="px"
     width="1200px"
     inkscape:snap-global="true"
     inkscape:snap-bbox="false"
     inkscape:snap-intersection-paths="true"
     inkscape:object-paths="true"
     inkscape:snap-smooth-nodes="true"
     inkscape:window-width="1920"
     inkscape:window-height="1017"
     inkscape:window-x="1912"
     inkscape:window-y="-8"
     inkscape:window-maximized="1" />
  <metadata
     id="metadata5">
    <rdf:RDF>
      <cc:Work
         rdf:about="">
        <dc:format>image/svg+xml</dc:format>
        <dc:type
           rdf:resource="http://purl.org/dc/dcmitype/StillImage" />
        <dc:title>Simple Letter Logo</dc:title>
      </cc:Work>
    </rdf:RDF>
  </metadata>
  <g
     inkscape:label="Layer 1"
     inkscape:groupmode="layer"
     id="layer1"
     transform="translate(0,-161.53333)">
    <path
       style="opacity:1;fill:url(#linearGradient4618);fill-opacity:1;stroke-width:0.02527866;stroke-miterlimit:4;stroke-dasharray:none"
       d="m 67.733332,189.57916 a 39.6875,39.6875 0 0 0 -39.687499,39.6875 39.6875,39.6875 0 0 0 39.687499,39.6875 39.6875,39.6875 0 0 0 39.687498,-39.6875 39.6875,39.6875 0 0 0 -39.687498,-39.6875 z m 0,19.84375 a 19.843749,19.843749 0 0 1 19.84375,19.84375 19.843749,19.843749 0 0 1 -19.84375,19.84375 19.843749,19.843749 0 0 1 -19.843749,-19.84375 19.843749,19.843749 0 0 1 19.843749,-19.84375 z"
       id="path815"
       inkscape:connector-curvature="0" />
    <path
       style="opacity:1;fill:url(#linearGradient4610);fill-opacity:1;stroke-width:0.018959;stroke-miterlimit:4;stroke-dasharray:none"
       d="m 107.42083,163.12083 c -10.993438,0 -19.843747,8.85031 -19.843747,19.84375 v 46.30208 a 19.843749,19.843749 0 0 1 -19.84375,19.84375 19.843749,19.843749 0 0 1 -19.84375,-19.84375 19.843749,19.843749 0 0 1 18.440217,-19.79414 29.765622,29.765622 0 0 0 -28.362092,29.71602 29.765622,29.765622 0 0 0 29.765625,29.76562 29.765622,29.765622 0 0 0 2.971395,-0.14883 39.6875,39.6875 0 0 0 36.716102,-39.53867 z"
       id="path4595"
       inkscape:connector-curvature="0" />
  </g>
</svg>
