<?xml version="1.0" encoding="UTF-8" standalone="no"?>
<!-- Created with Inkscape (http://www.inkscape.org/) -->

<svg
   xmlns:dc="http://purl.org/dc/elements/1.1/"
   xmlns:cc="http://creativecommons.org/ns#"
   xmlns:rdf="http://www.w3.org/1999/02/22-rdf-syntax-ns#"
   xmlns:svg="http://www.w3.org/2000/svg"
   xmlns="http://www.w3.org/2000/svg"
   xmlns:sodipodi="http://sodipodi.sourceforge.net/DTD/sodipodi-0.dtd"
   xmlns:inkscape="http://www.inkscape.org/namespaces/inkscape"
   width="1024"
   height="640"
   viewBox="0 0 270.93333 169.33334"
   version="1.1"
   id="svg8"
   inkscape:version="0.92.4 (5da689c313, 2019-01-14)"
   sodipodi:docname="004_infinite_loop_icon.svg">
  <title
     id="title1004">Infinite Loop Icon</title>
  <defs
     id="defs2" />
  <sodipodi:namedview
     id="base"
     pagecolor="#ffffff"
     bordercolor="#666666"
     borderopacity="1.0"
     inkscape:pageopacity="0.0"
     inkscape:pageshadow="2"
     inkscape:zoom="1"
     inkscape:cx="646.94588"
     inkscape:cy="345.02906"
     inkscape:document-units="px"
     inkscape:current-layer="layer1"
     showgrid="false"
     units="px"
     inkscape:pagecheckerboard="true"
     inkscape:snap-bbox="false"
     inkscape:object-paths="true"
     inkscape:snap-intersection-paths="true"
     inkscape:snap-smooth-nodes="true"
     inkscape:window-width="1920"
     inkscape:window-height="1001"
     inkscape:window-x="-9"
     inkscape:window-y="-9"
     inkscape:window-maximized="1" />
  <metadata
     id="metadata5">
    <rdf:RDF>
      <cc:Work
         rdf:about="">
        <dc:format>image/svg+xml</dc:format>
        <dc:type
           rdf:resource="http://purl.org/dc/dcmitype/StillImage" />
        <dc:title>Infinite Loop Icon</dc:title>
      </cc:Work>
    </rdf:RDF>
  </metadata>
  <g
     inkscape:label="Layer 1"
     inkscape:groupmode="layer"
     id="layer1"
     transform="translate(0,-127.66664)">
    <g
       id="g1002"
       transform="translate(-1.2692539,-8.6559882)">
      <path
         inkscape:connector-curvature="0"
         id="path958"
         d="m 129.63396,228.39048 c -14.18675,14.18674 -14.18675,37.44972 0,51.63647 14.18675,14.18675 37.44973,14.18675 51.63647,0 2.9969,-2.99689 6.55737,-6.55754 10.85115,-10.85187 l 10.85187,10.85187 c 14.18673,14.18675 37.44973,14.18675 51.63647,0 14.18676,-14.18675 14.18712,-37.45008 3.7e-4,-51.63683 -7.09317,-7.09317 -16.48179,-10.66809 -25.8186,-10.66809 -9.33682,2e-5 -18.72506,3.57528 -25.81824,10.66845 -2.9962,2.99622 -6.55768,6.55679 -10.85224,10.85077 l -10.85078,-10.85077 c -7.09317,-7.09317 -16.48179,-10.66808 -25.8186,-10.66807 -9.33681,-1e-5 -18.7247,3.5749 -25.81787,10.66807 z m 4.48976,4.49049 3.7e-4,-3.6e-4 c 5.87182,-5.87162 13.59942,-8.80851 21.32738,-8.80852 l 7.3e-4,7.3e-4 c 7.72812,0 15.45661,2.93702 21.32847,8.80888 l 10.84968,10.84968 -5.98574,5.98721 -3.6e-4,-3.7e-4 -10.85115,-10.85114 c -4.2541,-4.25411 -9.79805,-6.38038 -15.34163,-6.38038 -5.54359,0 -11.08754,2.12628 -15.34164,6.38038 -8.50821,8.5082 -8.50821,22.1736 0,30.68181 8.50821,8.50821 22.17507,8.5082 30.68327,0 2.99696,-2.99696 7.15164,-7.15194 10.85224,-10.85297 l 7.3e-4,7.3e-4 2.99196,2.99342 2.99378,2.99451 c -3.70075,3.70119 -7.85484,7.85559 -10.8515,10.85224 -11.74373,11.74375 -30.91249,11.74374 -42.65622,0 -11.74361,-11.74361 -11.74373,-30.91207 -3.7e-4,-42.65585 z m 10.47624,10.47551 c 3.05179,-3.05179 6.93201,-4.52119 10.85151,-4.52119 l 3.6e-4,3.6e-4 c 3.91949,0 7.79972,1.4694 10.85151,4.52119 l 10.84932,10.85005 c -3.70059,3.70117 -7.85375,7.85521 -10.84969,10.85114 -6.10395,6.10397 -15.59905,6.10396 -21.70301,0 -6.10431,-6.1043 -6.1043,-15.59724 0,-21.70155 z m 41.53332,10.85077 3.6e-4,-3.6e-4 5.98648,-5.98574 v -7.3e-4 l 0.001,0.001 c 1.5e-4,-1.5e-4 5.8e-4,-5.8e-4 7.3e-4,-7.3e-4 l 5.98537,5.98537 3.7e-4,3.7e-4 -10e-4,10e-4 -5.98537,5.9861 -5.98721,-5.98574 c -2.2e-4,-2.3e-4 -8.7e-4,-8.7e-4 -10e-4,-10e-4 z m 10.47842,-10.47477 c 3.70119,-3.70076 7.85559,-7.85485 10.85224,-10.85151 5.87187,-5.87186 13.6,-8.80924 21.32811,-8.80924 7.72813,-1e-5 15.45661,2.93701 21.32847,8.80888 11.74374,11.74374 11.74338,30.91286 -3.6e-4,42.65658 -11.74373,11.74374 -30.91249,11.74374 -42.65622,0 l -10.85406,-10.85407 5.98647,-5.98501 c 2.5e-4,2.5e-4 4.8e-4,4.8e-4 7.3e-4,7.3e-4 l 0.001,-0.001 10.85115,10.85115 c 8.5082,8.5082 22.17361,8.5082 30.68181,0 8.5082,-8.50821 8.50858,-22.17397 3.6e-4,-30.68218 -4.25409,-4.2541 -9.7966,-6.38038 -15.34017,-6.38038 -5.54358,0 -11.0879,2.12664 -15.342,6.38074 -2.9966,2.9966 -7.1511,7.15079 -10.85224,10.85151 z m 10.47661,10.47441 c 3.70082,-3.70024 7.85476,-7.8533 10.8515,-10.85005 3.05178,-3.05177 6.93203,-4.52118 10.85151,-4.52119 3.91949,0 7.79758,1.46872 10.85005,4.52119 6.10431,6.10431 6.10431,15.59726 0,21.70156 -6.1043,6.10429 -15.59725,6.1043 -21.70156,0 z"
         style="color:#000000;font-style:normal;font-variant:normal;font-weight:normal;font-stretch:normal;font-size:medium;line-height:normal;font-family:sans-serif;font-variant-ligatures:normal;font-variant-position:normal;font-variant-caps:normal;font-variant-numeric:normal;font-variant-alternates:normal;font-feature-settings:normal;text-indent:0;text-align:start;text-decoration:none;text-decoration-line:none;text-decoration-style:solid;text-decoration-color:#000000;letter-spacing:normal;word-spacing:normal;text-transform:none;writing-mode:lr-tb;direction:ltr;text-orientation:mixed;dominant-baseline:auto;baseline-shift:baseline;text-anchor:start;white-space:normal;shape-padding:0;clip-rule:nonzero;display:inline;overflow:visible;visibility:visible;opacity:1;isolation:auto;mix-blend-mode:normal;color-interpolation:sRGB;color-interpolation-filters:linearRGB;solid-color:#000000;solid-opacity:1;vector-effect:none;fill:#ff0000;fill-opacity:1;fill-rule:nonzero;stroke:none;stroke-width:12.70000172;stroke-linecap:round;stroke-linejoin:round;stroke-miterlimit:4;stroke-dasharray:none;stroke-dashoffset:0;stroke-opacity:1;color-rendering:auto;image-rendering:auto;shape-rendering:auto;text-rendering:auto;enable-background:accumulate" />
      <path
         inkscape:connector-curvature="0"
         id="path975"
         d="m 183.79627,260.85062 -2.15303,-2.1525 14.96846,-14.96563 2.15141,2.14999 -14.96705,14.96808"
         style="fill:#000000;fill-opacity:0.49803922;stroke:none;stroke-width:0.26458335px;stroke-linecap:butt;stroke-linejoin:miter;stroke-opacity:1"
         sodipodi:nodetypes="ccccc" />
      <path
         sodipodi:nodetypes="ccccc"
         style="fill:#000000;fill-opacity:0.49803922;stroke:none;stroke-width:0.26458335px;stroke-linecap:butt;stroke-linejoin:miter;stroke-opacity:1"
         d="m 187.63195,264.68472 -2.15303,-2.15251 14.96846,-14.96563 2.15141,2.14999 -14.96705,14.96808"
         id="path977"
         inkscape:connector-curvature="0" />
      <path
         sodipodi:nodetypes="ccccc"
         style="fill:#000000;fill-opacity:0.49803922;stroke:none;stroke-width:0.26458335px;stroke-linecap:butt;stroke-linejoin:miter;stroke-opacity:1"
         d="m 177.15266,254.20689 -2.15303,-2.15251 14.96846,-14.96563 2.15141,2.14999 -14.96704,14.96808"
         id="path979"
         inkscape:connector-curvature="0" />
      <path
         inkscape:connector-curvature="0"
         id="path981"
         d="m 194.2746,271.32758 -2.15303,-2.1525 14.96846,-14.96563 2.15141,2.14999 -14.96704,14.96808"
         style="fill:#000000;fill-opacity:0.49803922;stroke:none;stroke-width:0.26458335px;stroke-linecap:butt;stroke-linejoin:miter;stroke-opacity:1"
         sodipodi:nodetypes="ccccc" />
    </g>
    <g
       id="g995"
       transform="translate(13.50021,3.0828061)">
      <path
         inkscape:connector-curvature="0"
         id="path920"
         d="m 42.874811,135.33959 c -9.336809,0 -18.724889,3.57491 -25.81806,10.66808 -14.1867461,14.18675 -14.1867539,37.44989 -10e-7,51.63664 14.186747,14.18675 37.449897,14.18675 51.636644,0 2.996893,-2.99689 6.557238,-6.55772 10.851018,-10.85205 4.294429,4.29443 7.855523,7.85553 10.852052,10.85206 14.186736,14.18674 37.449896,14.18675 51.636636,0 14.18676,-14.18676 14.18675,-37.4499 0,-51.63665 -7.09317,-7.09317 -16.48176,-10.66809 -25.81857,-10.66809 -9.33682,10e-6 -18.724896,3.57492 -25.818075,10.66809 -2.996202,2.99621 -6.557495,6.55703 -10.852049,10.85102 -4.293892,-4.2939 -7.854438,-7.85444 -10.851012,-10.85102 C 61.600222,138.9145 52.21162,135.33959 42.874811,135.33959 Z m 3e-6,21.11344 c 3.919492,0 7.799746,1.46938 10.851532,4.52117 l 10.849467,10.84998 c -3.700589,3.70117 -7.853862,7.85528 -10.849793,10.85121 -6.103951,6.10396 -15.599105,6.10396 -21.703065,0 -6.104305,-6.1043 -6.104307,-15.59721 -5e-6,-21.70152 3.051787,-3.05179 6.932046,-4.52117 10.851538,-4.52117 z m 73.339706,-1e-5 c 3.91949,0 7.79752,1.4687 10.84999,4.52117 6.10431,6.10431 6.1043,15.59723 -1e-5,21.70153 -6.1043,6.10429 -15.59721,6.1043 -21.70151,-1e-5 -2.99653,-2.99652 -7.150573,-7.15056 -10.851533,-10.85152 3.70082,-3.70024 7.854723,-7.85332 10.851473,-10.85006 3.05177,-3.05178 6.93204,-4.52116 10.85153,-4.52117 z"
         style="color:#000000;font-style:normal;font-variant:normal;font-weight:normal;font-stretch:normal;font-size:medium;line-height:normal;font-family:sans-serif;font-variant-ligatures:normal;font-variant-position:normal;font-variant-caps:normal;font-variant-numeric:normal;font-variant-alternates:normal;font-feature-settings:normal;text-indent:0;text-align:start;text-decoration:none;text-decoration-line:none;text-decoration-style:solid;text-decoration-color:#000000;letter-spacing:normal;word-spacing:normal;text-transform:none;writing-mode:lr-tb;direction:ltr;text-orientation:mixed;dominant-baseline:auto;baseline-shift:baseline;text-anchor:start;white-space:normal;shape-padding:0;clip-rule:nonzero;display:inline;overflow:visible;visibility:visible;opacity:1;isolation:auto;mix-blend-mode:normal;color-interpolation:sRGB;color-interpolation-filters:linearRGB;solid-color:#000000;solid-opacity:1;vector-effect:none;fill:#ff0000;fill-opacity:1;fill-rule:nonzero;stroke:none;stroke-width:12.70000076;stroke-linecap:round;stroke-linejoin:round;stroke-miterlimit:4;stroke-dasharray:none;stroke-dashoffset:0;stroke-opacity:1;color-rendering:auto;image-rendering:auto;shape-rendering:auto;text-rendering:auto;enable-background:accumulate" />
      <path
         inkscape:connector-curvature="0"
         id="path905"
         d="m 21.546929,150.49798 c -11.7437284,11.74374 -11.7437365,30.91249 1e-6,42.65622 11.743734,11.74374 30.91249,11.74374 42.656217,0 4.236473,-4.23646 12.194078,-12.19554 15.340906,-15.34237 l 5.986838,-5.98757 c 3.147462,-3.14746 11.105458,-11.10399 15.341639,-15.34017 4.2541,-4.2541 9.79843,-6.38075 15.342,-6.38075 5.54358,0 11.08608,2.12629 15.34017,6.38038 8.50822,8.50821 8.50785,22.17397 -3.6e-4,30.68218 -8.5082,8.5082 -22.17361,8.50821 -30.68181,0 -2.996649,-2.99665 -7.150882,-7.15088 -10.851876,-10.85187 l -5.987934,5.98647 c 3.701473,3.70147 7.856987,7.85699 10.854068,10.85406 11.743732,11.74375 30.912482,11.74375 42.656222,0 11.74373,-11.74372 11.7441,-30.91284 3.6e-4,-42.65658 -5.87186,-5.87186 -13.60035,-8.80888 -21.32847,-8.80888 -7.72812,0 -15.45625,2.93738 -21.328112,8.80925 -4.23647,4.23647 -12.19554,12.19407 -15.34237,15.3409 -2.97e-4,-3e-4 -0.0012,-0.001 -0.0015,-0.001 v 7.3e-4 l -5.986471,5.98574 -0.0011,10e-4 c -3.147361,3.14738 -11.102972,11.10443 -15.339081,15.34054 -8.508203,8.5082 -22.175068,8.50821 -30.683272,0 -8.508209,-8.5082 -8.508208,-22.1736 -10e-7,-30.68181 4.254101,-4.2541 9.798058,-6.38038 15.341638,-6.38038 5.543586,0 11.087532,2.12628 15.341637,6.38038 l 10.851508,10.85151 5.985739,-5.98721 c -3.700511,-3.70051 -7.853445,-7.85344 -10.84968,-10.84968 -5.871866,-5.87186 -13.600351,-8.80888 -21.328474,-8.80888 l -7.3e-4,-7.3e-4 c -7.728117,1e-5 -15.455881,2.93702 -21.327745,8.80888 z"
         style="color:#000000;font-style:normal;font-variant:normal;font-weight:normal;font-stretch:normal;font-size:medium;line-height:normal;font-family:sans-serif;font-variant-ligatures:normal;font-variant-position:normal;font-variant-caps:normal;font-variant-numeric:normal;font-variant-alternates:normal;font-feature-settings:normal;text-indent:0;text-align:start;text-decoration:none;text-decoration-line:none;text-decoration-style:solid;text-decoration-color:#000000;letter-spacing:normal;word-spacing:normal;text-transform:none;writing-mode:lr-tb;direction:ltr;text-orientation:mixed;dominant-baseline:auto;baseline-shift:baseline;text-anchor:start;white-space:normal;shape-padding:0;clip-rule:nonzero;display:inline;overflow:visible;visibility:visible;opacity:1;isolation:auto;mix-blend-mode:normal;color-interpolation:sRGB;color-interpolation-filters:linearRGB;solid-color:#000000;solid-opacity:1;vector-effect:none;fill:#ffffff;fill-opacity:1;fill-rule:nonzero;stroke:none;stroke-width:8.46666718;stroke-linecap:round;stroke-linejoin:round;stroke-miterlimit:4;stroke-dasharray:none;stroke-dashoffset:0;stroke-opacity:1;color-rendering:auto;image-rendering:auto;shape-rendering:auto;text-rendering:auto;enable-background:accumulate" />
      <path
         inkscape:connector-curvature="0"
         id="path983"
         d="m 64.577565,171.82683 -2.153027,-2.15251 14.96846,-14.96563 2.151408,2.15 -14.967046,14.96807"
         style="fill:#000000;fill-opacity:0.49803922;stroke:none;stroke-width:0.26458335px;stroke-linecap:butt;stroke-linejoin:miter;stroke-opacity:1"
         sodipodi:nodetypes="ccccc" />
      <path
         sodipodi:nodetypes="ccccc"
         style="fill:#000000;fill-opacity:0.49803922;stroke:none;stroke-width:0.26458335px;stroke-linecap:butt;stroke-linejoin:miter;stroke-opacity:1"
         d="m 81.696023,188.94232 -2.153027,-2.1525 14.968461,-14.96563 2.151407,2.14999 -14.967046,14.96808"
         id="path985"
         inkscape:connector-curvature="0" />
    </g>
  </g>
</svg>
