<?xml version="1.0" encoding="UTF-8" standalone="no"?>
<!-- Created with Inkscape (http://www.inkscape.org/) -->

<svg
   xmlns:dc="http://purl.org/dc/elements/1.1/"
   xmlns:cc="http://creativecommons.org/ns#"
   xmlns:rdf="http://www.w3.org/1999/02/22-rdf-syntax-ns#"
   xmlns:svg="http://www.w3.org/2000/svg"
   xmlns="http://www.w3.org/2000/svg"
   xmlns:sodipodi="http://sodipodi.sourceforge.net/DTD/sodipodi-0.dtd"
   xmlns:inkscape="http://www.inkscape.org/namespaces/inkscape"
   width="1024"
   height="640"
   viewBox="0 0 270.93333 169.33333"
   version="1.1"
   id="svg8"
   inkscape:version="0.92.4 (5da689c313, 2019-01-14)"
   sodipodi:docname="005_drone_icon.svg">
  <title
     id="title1183">Drone Icon Tutorial</title>
  <defs
     id="defs2" />
  <sodipodi:namedview
     id="base"
     pagecolor="#ffffff"
     bordercolor="#666666"
     borderopacity="1.0"
     inkscape:pageopacity="0.0"
     inkscape:pageshadow="2"
     inkscape:zoom="1"
     inkscape:cx="455.00389"
     inkscape:cy="323.33338"
     inkscape:document-units="px"
     inkscape:current-layer="layer1"
     showgrid="false"
     units="px"
     inkscape:pagecheckerboard="true"
     inkscape:object-nodes="true"
     inkscape:snap-global="false"
     inkscape:window-width="1920"
     inkscape:window-height="1001"
     inkscape:window-x="-9"
     inkscape:window-y="-9"
     inkscape:window-maximized="1" />
  <metadata
     id="metadata5">
    <rdf:RDF>
      <cc:Work
         rdf:about="">
        <dc:format>image/svg+xml</dc:format>
        <dc:type
           rdf:resource="http://purl.org/dc/dcmitype/StillImage" />
        <dc:title>Drone Icon Tutorial</dc:title>
      </cc:Work>
    </rdf:RDF>
  </metadata>
  <g
     inkscape:label="Layer 1"
     inkscape:groupmode="layer"
     id="layer1"
     transform="translate(0,-127.66665)">
    <circle
       style="opacity:1;fill:#ffffff;fill-opacity:1;stroke:#0f346f;stroke-width:1.05833328;stroke-linecap:round;stroke-linejoin:round;stroke-miterlimit:4;stroke-dasharray:none;stroke-opacity:1"
       id="path825"
       cx="162.65561"
       cy="170.03688"
       r="13.758333"
       transform="rotate(15)" />
    <path
       style="opacity:1;fill:none;fill-opacity:1;stroke:#0f346f;stroke-width:0.52916664;stroke-linecap:round;stroke-linejoin:round;stroke-miterlimit:4;stroke-dasharray:none;stroke-opacity:1"
       d="m 101.46507,216.34232 a 15.345832,15.345832 0 0 1 -3.183528,-13.97273 15.345832,15.345832 0 0 1 9.745698,-10.50978"
       id="circle829"
       inkscape:connector-curvature="0" />
    <path
       style="opacity:1;fill:none;fill-opacity:1;stroke:#0f346f;stroke-width:0.52916664;stroke-linecap:round;stroke-linejoin:round;stroke-miterlimit:4;stroke-dasharray:none;stroke-opacity:1"
       d="m 122.16347,199.45859 a 11.377084,11.377084 0 0 1 1.93043,9.8274 v 0 a 11.377084,11.377084 0 0 1 -6.58417,7.545"
       id="path862"
       inkscape:connector-curvature="0" />
    <path
       style="opacity:1;fill:none;fill-opacity:1;stroke:#0f346f;stroke-width:0.52916664;stroke-linecap:round;stroke-linejoin:round;stroke-miterlimit:4;stroke-dasharray:none;stroke-opacity:1"
       d="m 104.04524,213.22384 a 11.377084,11.377084 0 0 1 -1.93018,-9.82707 11.377084,11.377084 0 0 1 6.58455,-7.54515"
       id="circle838"
       inkscape:connector-curvature="0" />
    <path
       style="opacity:1;fill:none;fill-opacity:1;stroke:#0f346f;stroke-width:0.52916664;stroke-linecap:round;stroke-linejoin:round;stroke-miterlimit:4;stroke-dasharray:none;stroke-opacity:1"
       d="m 121.72195,201.29166 a 9.9880218,9.9880218 0 0 1 1.03022,7.63481 v 0 a 9.9880218,9.9880218 0 0 1 -4.70947,6.09676"
       id="path888"
       inkscape:connector-curvature="0" />
    <path
       style="opacity:1;fill:none;fill-opacity:1;stroke:#0f346f;stroke-width:0.52916664;stroke-linecap:round;stroke-linejoin:round;stroke-miterlimit:4;stroke-dasharray:none;stroke-opacity:1"
       d="m 104.487,211.39111 a 9.9880218,9.9880218 0 0 1 -1.03021,-7.63482 9.9880218,9.9880218 0 0 1 4.70946,-6.09675"
       id="circle840"
       inkscape:connector-curvature="0" />
    <circle
       r="13.758333"
       cy="170.03688"
       cx="-208.9577"
       id="circle901"
       style="opacity:1;fill:#ffffff;fill-opacity:1;stroke:#0f346f;stroke-width:1.05833328;stroke-linecap:round;stroke-linejoin:round;stroke-miterlimit:4;stroke-dasharray:none;stroke-opacity:1"
       transform="matrix(-0.96592583,-0.25881905,-0.25881905,0.96592583,0,0)" />
    <path
       inkscape:connector-curvature="0"
       id="path903"
       d="m 162.90841,232.80602 a 15.345832,15.345832 0 0 0 9.74338,-10.50899 15.345832,15.345832 0 0 0 -3.18513,-13.97458"
       style="opacity:1;fill:none;fill-opacity:1;stroke:#0f346f;stroke-width:0.52916664;stroke-linecap:round;stroke-linejoin:round;stroke-miterlimit:4;stroke-dasharray:none;stroke-opacity:1" />
    <path
       inkscape:connector-curvature="0"
       id="path905"
       d="m 153.42493,207.83508 a 11.377084,11.377084 0 0 0 -6.5855,7.54555 v 0 a 11.377084,11.377084 0 0 0 1.92956,9.82625"
       style="opacity:1;fill:none;fill-opacity:1;stroke:#0f346f;stroke-width:0.52916664;stroke-linecap:round;stroke-linejoin:round;stroke-miterlimit:4;stroke-dasharray:none;stroke-opacity:1" />
    <path
       inkscape:connector-curvature="0"
       id="path907"
       d="m 162.23315,228.81525 a 11.377084,11.377084 0 0 0 6.58512,-7.5454 11.377084,11.377084 0 0 0 -1.92981,-9.82658"
       style="opacity:1;fill:none;fill-opacity:1;stroke:#0f346f;stroke-width:0.52916664;stroke-linecap:round;stroke-linejoin:round;stroke-miterlimit:4;stroke-dasharray:none;stroke-opacity:1" />
    <path
       inkscape:connector-curvature="0"
       id="path909"
       d="m 152.89077,209.64332 a 9.9880218,9.9880218 0 0 0 -4.7096,6.09683 v 0 a 9.9880218,9.9880218 0 0 0 1.03013,7.63468"
       style="opacity:1;fill:none;fill-opacity:1;stroke:#0f346f;stroke-width:0.52916664;stroke-linecap:round;stroke-linejoin:round;stroke-miterlimit:4;stroke-dasharray:none;stroke-opacity:1" />
    <path
       inkscape:connector-curvature="0"
       id="path911"
       d="m 162.76694,227.00717 a 9.9880218,9.9880218 0 0 0 4.7096,-6.09684 9.9880218,9.9880218 0 0 0 -1.03013,-7.63467"
       style="opacity:1;fill:none;fill-opacity:1;stroke:#0f346f;stroke-width:0.52916664;stroke-linecap:round;stroke-linejoin:round;stroke-miterlimit:4;stroke-dasharray:none;stroke-opacity:1" />
    <circle
       r="13.758333"
       cy="-185.80666"
       cx="146.88583"
       id="circle969"
       style="opacity:1;fill:#ffffff;fill-opacity:1;stroke:#0f346f;stroke-width:1.05833328;stroke-linecap:round;stroke-linejoin:round;stroke-miterlimit:4;stroke-dasharray:none;stroke-opacity:1"
       transform="rotate(105)" />
    <path
       inkscape:connector-curvature="0"
       id="path971"
       d="m 131.45766,178.33172 a 15.345832,15.345832 0 0 1 13.97273,-3.18353 15.345832,15.345832 0 0 1 10.50978,9.7457"
       style="opacity:1;fill:none;fill-opacity:1;stroke:#0f346f;stroke-width:0.52916664;stroke-linecap:round;stroke-linejoin:round;stroke-miterlimit:4;stroke-dasharray:none;stroke-opacity:1" />
    <path
       inkscape:connector-curvature="0"
       id="path973"
       d="m 148.34138,199.03012 a 11.377084,11.377084 0 0 1 -9.82739,1.93043 v 0 a 11.377084,11.377084 0 0 1 -7.545,-6.58417"
       style="opacity:1;fill:none;fill-opacity:1;stroke:#0f346f;stroke-width:0.52916664;stroke-linecap:round;stroke-linejoin:round;stroke-miterlimit:4;stroke-dasharray:none;stroke-opacity:1" />
    <path
       inkscape:connector-curvature="0"
       id="path975"
       d="m 134.57613,180.91188 a 11.377084,11.377084 0 0 1 9.82707,-1.93017 11.377084,11.377084 0 0 1 7.54516,6.58455"
       style="opacity:1;fill:none;fill-opacity:1;stroke:#0f346f;stroke-width:0.52916664;stroke-linecap:round;stroke-linejoin:round;stroke-miterlimit:4;stroke-dasharray:none;stroke-opacity:1" />
    <path
       inkscape:connector-curvature="0"
       id="path977"
       d="m 146.50832,198.58859 a 9.9880218,9.9880218 0 0 1 -7.63482,1.03022 v 0 a 9.9880218,9.9880218 0 0 1 -6.09676,-4.70946"
       style="opacity:1;fill:none;fill-opacity:1;stroke:#0f346f;stroke-width:0.52916664;stroke-linecap:round;stroke-linejoin:round;stroke-miterlimit:4;stroke-dasharray:none;stroke-opacity:1" />
    <path
       inkscape:connector-curvature="0"
       id="path979"
       d="m 136.40887,181.35365 a 9.9880218,9.9880218 0 0 1 7.63481,-1.03021 9.9880218,9.9880218 0 0 1 6.09677,4.70945"
       style="opacity:1;fill:none;fill-opacity:1;stroke:#0f346f;stroke-width:0.52916664;stroke-linecap:round;stroke-linejoin:round;stroke-miterlimit:4;stroke-dasharray:none;stroke-opacity:1" />
    <circle
       style="opacity:1;fill:#ffffff;fill-opacity:1;stroke:#0f346f;stroke-width:1.05833328;stroke-linecap:round;stroke-linejoin:round;stroke-miterlimit:4;stroke-dasharray:none;stroke-opacity:1"
       id="circle985"
       cx="-193.18793"
       cy="-185.80666"
       r="13.758333"
       transform="matrix(0.25881905,-0.96592583,-0.96592583,-0.25881905,0,0)" />
    <path
       style="opacity:1;fill:none;fill-opacity:1;stroke:#0f346f;stroke-width:0.52916664;stroke-linecap:round;stroke-linejoin:round;stroke-miterlimit:4;stroke-dasharray:none;stroke-opacity:1"
       d="m 114.99396,239.77506 a 15.345832,15.345832 0 0 0 10.50898,9.74338 15.345832,15.345832 0 0 0 13.97459,-3.18513"
       id="path987"
       inkscape:connector-curvature="0" />
    <path
       style="opacity:1;fill:none;fill-opacity:1;stroke:#0f346f;stroke-width:0.52916664;stroke-linecap:round;stroke-linejoin:round;stroke-miterlimit:4;stroke-dasharray:none;stroke-opacity:1"
       d="m 139.9649,230.29158 a 11.377084,11.377084 0 0 0 -7.54556,-6.5855 v 0 a 11.377084,11.377084 0 0 0 -9.82624,1.92956"
       id="path989"
       inkscape:connector-curvature="0" />
    <path
       style="opacity:1;fill:none;fill-opacity:1;stroke:#0f346f;stroke-width:0.52916664;stroke-linecap:round;stroke-linejoin:round;stroke-miterlimit:4;stroke-dasharray:none;stroke-opacity:1"
       d="m 118.98473,239.09981 a 11.377084,11.377084 0 0 0 7.5454,6.58511 11.377084,11.377084 0 0 0 9.82657,-1.92981"
       id="path991"
       inkscape:connector-curvature="0" />
    <path
       style="opacity:1;fill:none;fill-opacity:1;stroke:#0f346f;stroke-width:0.52916664;stroke-linecap:round;stroke-linejoin:round;stroke-miterlimit:4;stroke-dasharray:none;stroke-opacity:1"
       d="m 138.15666,229.75742 a 9.9880218,9.9880218 0 0 0 -6.09684,-4.7096 v 0 a 9.9880218,9.9880218 0 0 0 -7.63468,1.03013"
       id="path993"
       inkscape:connector-curvature="0" />
    <path
       style="opacity:1;fill:none;fill-opacity:1;stroke:#0f346f;stroke-width:0.52916664;stroke-linecap:round;stroke-linejoin:round;stroke-miterlimit:4;stroke-dasharray:none;stroke-opacity:1"
       d="m 120.79281,239.63359 a 9.9880218,9.9880218 0 0 0 6.09683,4.7096 9.9880218,9.9880218 0 0 0 7.63468,-1.03013"
       id="path995"
       inkscape:connector-curvature="0" />
    <path
       sodipodi:type="star"
       style="opacity:1;fill:#727e00;fill-opacity:1;stroke:#0f346f;stroke-width:1.05833328;stroke-linecap:round;stroke-linejoin:round;stroke-miterlimit:4;stroke-dasharray:none;stroke-opacity:1"
       id="path815"
       sodipodi:sides="4"
       sodipodi:cx="57.943748"
       sodipodi:cy="190.37289"
       sodipodi:r1="26.988796"
       sodipodi:r2="6.2074232"
       sodipodi:arg1="1.5707963"
       sodipodi:arg2="2.3561945"
       inkscape:flatsided="false"
       inkscape:rounded="0.45"
       inkscape:randomized="0"
       d="m 57.943749,217.36169 c -10.359805,0 2.936177,-15.274 -4.389312,-22.59948 -7.325488,-7.32549 -22.599485,5.97049 -22.599485,-4.38931 0,-10.35981 15.273997,2.93617 22.599485,-4.38932 7.325489,-7.32549 -5.970494,-22.59948 4.389311,-22.59948 10.359805,0 -2.936177,15.27399 4.389312,22.59948 7.325488,7.32549 22.599485,-5.97049 22.599485,4.38931 0,10.35981 -15.273997,-2.93617 -22.599486,4.38932 -7.325488,7.32548 5.970495,22.59948 -4.38931,22.59948 z"
       transform="rotate(15,13.302231,495.77562)" />
    <circle
       r="1.3229167"
       cy="170.03688"
       cx="162.65561"
       id="circle827"
       style="opacity:1;fill:#0f346f;fill-opacity:1;stroke:none;stroke-width:0.10176282;stroke-linecap:round;stroke-linejoin:round;stroke-miterlimit:4;stroke-dasharray:none;stroke-opacity:1"
       transform="rotate(15)" />
    <circle
       style="opacity:1;fill:#0f346f;fill-opacity:1;stroke:none;stroke-width:0.10176282;stroke-linecap:round;stroke-linejoin:round;stroke-miterlimit:4;stroke-dasharray:none;stroke-opacity:1"
       id="circle913"
       cx="-208.9577"
       cy="170.03688"
       r="1.3229167"
       transform="matrix(-0.96592583,-0.25881905,-0.25881905,0.96592583,0,0)" />
    <circle
       style="opacity:1;fill:#0f346f;fill-opacity:1;stroke:none;stroke-width:0.10176282;stroke-linecap:round;stroke-linejoin:round;stroke-miterlimit:4;stroke-dasharray:none;stroke-opacity:1"
       id="circle981"
       cx="146.88583"
       cy="-185.80666"
       r="1.3229167"
       transform="rotate(105)" />
    <circle
       r="1.3229167"
       cy="-185.80666"
       cx="-193.18793"
       id="circle997"
       style="opacity:1;fill:#0f346f;fill-opacity:1;stroke:none;stroke-width:0.10176282;stroke-linecap:round;stroke-linejoin:round;stroke-miterlimit:4;stroke-dasharray:none;stroke-opacity:1"
       transform="matrix(0.25881905,-0.96592583,-0.96592583,-0.25881905,0,0)" />
  </g>
</svg>
