<?xml version="1.0" encoding="UTF-8" standalone="no"?>
<!-- Created with Inkscape (http://www.inkscape.org/) -->

<svg
   xmlns:dc="http://purl.org/dc/elements/1.1/"
   xmlns:cc="http://creativecommons.org/ns#"
   xmlns:rdf="http://www.w3.org/1999/02/22-rdf-syntax-ns#"
   xmlns:svg="http://www.w3.org/2000/svg"
   xmlns="http://www.w3.org/2000/svg"
   xmlns:xlink="http://www.w3.org/1999/xlink"
   xmlns:sodipodi="http://sodipodi.sourceforge.net/DTD/sodipodi-0.dtd"
   xmlns:inkscape="http://www.inkscape.org/namespaces/inkscape"
   width="768"
   height="256"
   viewBox="0 0 203.2 67.73333"
   version="1.1"
   id="svg8"
   inkscape:version="0.92.4 (5da689c313, 2019-01-14)"
   sodipodi:docname="006_text_styling.svg">
  <title
     id="title1534">Text Styling Tutorial</title>
  <defs
     id="defs2">
    <linearGradient
       inkscape:collect="always"
       id="linearGradient1405">
      <stop
         style="stop-color:#8acedf;stop-opacity:1"
         offset="0"
         id="stop1401" />
      <stop
         id="stop1409"
         offset="0.64641064"
         style="stop-color:#459fb5;stop-opacity:1" />
      <stop
         style="stop-color:#3f7d8d;stop-opacity:1"
         offset="1"
         id="stop1403" />
    </linearGradient>
    <filter
       inkscape:collect="always"
       style="color-interpolation-filters:sRGB"
       id="filter995"
       x="-0.5"
       width="2"
       y="-0.5"
       height="2">
      <feGaussianBlur
         inkscape:collect="always"
         stdDeviation="0.60040776"
         id="feGaussianBlur997" />
    </filter>
    <radialGradient
       inkscape:collect="always"
       xlink:href="#linearGradient1405"
       id="radialGradient1407"
       cx="101.6"
       cy="263.13336"
       fx="101.6"
       fy="263.13336"
       r="63.367706"
       gradientTransform="matrix(1,0,0,0.4112735,0,154.91358)"
       gradientUnits="userSpaceOnUse" />
  </defs>
  <sodipodi:namedview
     id="base"
     pagecolor="#ffffff"
     bordercolor="#666666"
     borderopacity="1.0"
     inkscape:pageopacity="0.0"
     inkscape:pageshadow="2"
     inkscape:zoom="1"
     inkscape:cx="378.39722"
     inkscape:cy="102.81661"
     inkscape:document-units="px"
     inkscape:current-layer="layer1"
     showgrid="false"
     inkscape:pagecheckerboard="true"
     units="px"
     inkscape:window-width="1920"
     inkscape:window-height="1017"
     inkscape:window-x="1912"
     inkscape:window-y="-8"
     inkscape:window-maximized="1" />
  <metadata
     id="metadata5">
    <rdf:RDF>
      <cc:Work
         rdf:about="">
        <dc:format>image/svg+xml</dc:format>
        <dc:type
           rdf:resource="http://purl.org/dc/dcmitype/StillImage" />
        <dc:title>Text Styling Tutorial</dc:title>
      </cc:Work>
    </rdf:RDF>
  </metadata>
  <g
     inkscape:label="Layer 1"
     inkscape:groupmode="layer"
     id="layer1"
     transform="translate(0,-229.26669)">
    <rect
       style="opacity:1;fill:url(#radialGradient1407);fill-opacity:1;stroke:none;stroke-width:2.11666656;stroke-linecap:round;stroke-linejoin:round;stroke-miterlimit:4;stroke-dasharray:none;stroke-opacity:1"
       id="rect1356"
       width="126.73541"
       height="52.122917"
       x="38.232292"
       y="237.0719" />
    <path
       inkscape:connector-curvature="0"
       id="path1013"
       style="font-style:normal;font-variant:normal;font-weight:normal;font-stretch:normal;font-size:25.39999962px;line-height:1.25;font-family:Forte;-inkscape-font-specification:'Forte, Normal';font-variant-ligatures:normal;font-variant-caps:normal;font-variant-numeric:normal;font-feature-settings:normal;text-align:start;letter-spacing:16.93333244px;word-spacing:0px;writing-mode:lr-tb;text-anchor:start;fill:none;fill-opacity:1;stroke:#000000;stroke-width:2.11666656;stroke-miterlimit:4;stroke-dasharray:none;stroke-opacity:1;filter:url(#filter995)"
       d="m 135.11423,265.61383 q 0.5705,-0.38447 0.86816,-0.76895 0.65732,-0.80615 1.01699,-1.84794 0.28526,-0.68213 0.44649,-1.52549 0.16123,-0.84336 0.16123,-1.5751 0,-0.68213 -0.28526,-0.68213 -0.39687,0 -1.21543,1.74873 -0.48369,1.0542 -0.79375,2.1084 -0.29765,1.0418 -0.29765,1.79834 0,0.26045 0.0992,0.74414 z m 0.0248,0.39687 q 0.13643,0.74415 0.96738,0.74415 0.93018,0 2.41846,-1.09141 0.86816,-0.63252 1.16582,-0.63252 0.37207,0 0.69453,0.19844 0.32246,0.19843 0.32246,0.40927 0,0.22325 -0.35967,0.58291 -0.65732,0.65733 -1.51308,1.28985 -0.85576,0.62012 -1.64951,1.04179 -0.79375,0.40928 -1.5875,0.65733 -0.79375,0.23564 -1.41387,0.23564 -1.55029,0 -2.48047,-0.88056 -0.93018,-0.89297 -0.93018,-2.36885 0,-1.12861 0.4837,-2.54248 0.49609,-1.42627 1.32705,-2.6665 0.97978,-1.45108 2.40605,-2.41846 1.76113,-1.16582 3.37344,-1.16582 1.16582,0 1.82314,0.74414 0.66973,0.73174 0.66973,2.02158 0,1.00459 -0.5333,2.096 -0.5209,1.0914 -1.55029,2.09599 -0.84336,0.84336 -1.66192,1.31465 -0.80615,0.47129 -1.41386,0.47129 -0.27286,0 -0.55811,-0.13643 z" />
    <path
       inkscape:connector-curvature="0"
       id="path1030"
       style="font-style:normal;font-variant:normal;font-weight:normal;font-stretch:normal;font-size:25.39999962px;line-height:1.25;font-family:Forte;-inkscape-font-specification:'Forte, Normal';font-variant-ligatures:normal;font-variant-caps:normal;font-variant-numeric:normal;font-feature-settings:normal;text-align:start;letter-spacing:16.93333244px;word-spacing:0px;writing-mode:lr-tb;text-anchor:start;fill:none;fill-opacity:1;stroke:#ffffff;stroke-width:2.11666656;stroke-miterlimit:4;stroke-dasharray:none;stroke-opacity:1"
       d="m 134.58506,265.08467 q 0.57051,-0.38447 0.86816,-0.76895 0.65733,-0.80615 1.01699,-1.84794 0.28526,-0.68213 0.44649,-1.52549 0.16123,-0.84336 0.16123,-1.5751 0,-0.68213 -0.28525,-0.68213 -0.39688,0 -1.21543,1.74873 -0.4837,1.0542 -0.79375,2.1084 -0.29766,1.0418 -0.29766,1.79834 0,0.26045 0.0992,0.74414 z m 0.0248,0.39687 q 0.13643,0.74415 0.96739,0.74415 0.93017,0 2.41845,-1.09141 0.86817,-0.63252 1.16582,-0.63252 0.37207,0 0.69453,0.19844 0.32246,0.19843 0.32246,0.40927 0,0.22325 -0.35966,0.58291 -0.65733,0.65733 -1.51309,1.28985 -0.85576,0.62012 -1.64951,1.0418 -0.79375,0.40927 -1.5875,0.65732 -0.79375,0.23564 -1.41387,0.23564 -1.55029,0 -2.48047,-0.88056 -0.93017,-0.89297 -0.93017,-2.36885 0,-1.12861 0.48369,-2.54248 0.49609,-1.42627 1.32705,-2.6665 0.97979,-1.45108 2.40605,-2.41846 1.76114,-1.16582 3.37344,-1.16582 1.16582,0 1.82315,0.74414 0.66972,0.73174 0.66972,2.02158 0,1.00459 -0.5333,2.096 -0.5209,1.0914 -1.55029,2.09599 -0.84336,0.84336 -1.66191,1.31465 -0.80616,0.47129 -1.41387,0.47129 -0.27285,0 -0.55811,-0.13643 z" />
    <path
       inkscape:connector-curvature="0"
       id="path1047"
       style="font-style:normal;font-variant:normal;font-weight:normal;font-stretch:normal;font-size:25.39999962px;line-height:1.25;font-family:Forte;-inkscape-font-specification:'Forte, Normal';font-variant-ligatures:normal;font-variant-caps:normal;font-variant-numeric:normal;font-feature-settings:normal;text-align:start;letter-spacing:16.93333244px;word-spacing:0px;writing-mode:lr-tb;text-anchor:start;fill:none;fill-opacity:1;stroke:#2c89a0;stroke-width:1.05833328;stroke-miterlimit:4;stroke-dasharray:none"
       d="m 134.58506,265.08467 q 0.57051,-0.38447 0.86816,-0.76895 0.65733,-0.80615 1.01699,-1.84794 0.28526,-0.68213 0.44649,-1.52549 0.16123,-0.84336 0.16123,-1.5751 0,-0.68213 -0.28525,-0.68213 -0.39688,0 -1.21543,1.74873 -0.4837,1.0542 -0.79375,2.1084 -0.29766,1.0418 -0.29766,1.79834 0,0.26045 0.0992,0.74414 z m 0.0248,0.39687 q 0.13643,0.74415 0.96739,0.74415 0.93017,0 2.41845,-1.09141 0.86817,-0.63252 1.16582,-0.63252 0.37207,0 0.69453,0.19844 0.32246,0.19843 0.32246,0.40927 0,0.22325 -0.35966,0.58291 -0.65733,0.65733 -1.51309,1.28985 -0.85576,0.62012 -1.64951,1.0418 -0.79375,0.40927 -1.5875,0.65732 -0.79375,0.23564 -1.41387,0.23564 -1.55029,0 -2.48047,-0.88056 -0.93017,-0.89297 -0.93017,-2.36885 0,-1.12861 0.48369,-2.54248 0.49609,-1.42627 1.32705,-2.6665 0.97979,-1.45108 2.40605,-2.41846 1.76114,-1.16582 3.37344,-1.16582 1.16582,0 1.82315,0.74414 0.66972,0.73174 0.66972,2.02158 0,1.00459 -0.5333,2.096 -0.5209,1.0914 -1.55029,2.09599 -0.84336,0.84336 -1.66191,1.31465 -0.80616,0.47129 -1.41387,0.47129 -0.27285,0 -0.55811,-0.13643 z" />
    <path
       inkscape:connector-curvature="0"
       id="path1064"
       style="font-style:normal;font-variant:normal;font-weight:normal;font-stretch:normal;font-size:25.39999962px;line-height:1.25;font-family:Forte;-inkscape-font-specification:'Forte, Normal';font-variant-ligatures:normal;font-variant-caps:normal;font-variant-numeric:normal;font-feature-settings:normal;text-align:start;letter-spacing:16.93333244px;word-spacing:0px;writing-mode:lr-tb;text-anchor:start;fill:#ffffff;fill-opacity:1;stroke:none;stroke-width:0.26458332"
       d="m 134.58506,265.08467 q 0.57051,-0.38447 0.86816,-0.76895 0.65733,-0.80615 1.01699,-1.84794 0.28526,-0.68213 0.44649,-1.52549 0.16123,-0.84336 0.16123,-1.5751 0,-0.68213 -0.28525,-0.68213 -0.39688,0 -1.21543,1.74873 -0.4837,1.0542 -0.79375,2.1084 -0.29766,1.0418 -0.29766,1.79834 0,0.26045 0.0992,0.74414 z m 0.0248,0.39687 q 0.13643,0.74415 0.96739,0.74415 0.93017,0 2.41845,-1.09141 0.86817,-0.63252 1.16582,-0.63252 0.37207,0 0.69453,0.19844 0.32246,0.19843 0.32246,0.40927 0,0.22325 -0.35966,0.58291 -0.65733,0.65733 -1.51309,1.28985 -0.85576,0.62012 -1.64951,1.0418 -0.79375,0.40927 -1.5875,0.65732 -0.79375,0.23564 -1.41387,0.23564 -1.55029,0 -2.48047,-0.88056 -0.93017,-0.89297 -0.93017,-2.36885 0,-1.12861 0.48369,-2.54248 0.49609,-1.42627 1.32705,-2.6665 0.97979,-1.45108 2.40605,-2.41846 1.76114,-1.16582 3.37344,-1.16582 1.16582,0 1.82315,0.74414 0.66972,0.73174 0.66972,2.02158 0,1.00459 -0.5333,2.096 -0.5209,1.0914 -1.55029,2.09599 -0.84336,0.84336 -1.66191,1.31465 -0.80616,0.47129 -1.41387,0.47129 -0.27285,0 -0.55811,-0.13643 z" />
    <path
       inkscape:connector-curvature="0"
       id="path1011"
       style="font-style:normal;font-variant:normal;font-weight:normal;font-stretch:normal;font-size:25.39999962px;line-height:1.25;font-family:Forte;-inkscape-font-specification:'Forte, Normal';font-variant-ligatures:normal;font-variant-caps:normal;font-variant-numeric:normal;font-feature-settings:normal;text-align:start;letter-spacing:16.93333244px;word-spacing:0px;writing-mode:lr-tb;text-anchor:start;fill:none;fill-opacity:1;stroke:#000000;stroke-width:2.11666656;stroke-miterlimit:4;stroke-dasharray:none;stroke-opacity:1;filter:url(#filter995)"
       d="m 124.15056,266.63082 q 0.34726,1.01699 1.31465,1.01699 0.68213,0 1.26504,-0.60771 0.59531,-0.62012 0.94257,-1.66192 0.35967,-1.05419 0.35967,-2.20761 0,-0.91778 -0.14883,-1.5875 -0.13642,-0.66973 -0.31006,-0.66973 -0.12402,0 -0.63251,0.65733 -0.5085,0.65732 -1.017,1.52548 -1.04179,1.68672 -1.57509,2.97657 -0.13643,0.33486 -0.19844,0.5581 z m 0.95498,-5.3082 0.38447,-0.71934 q 0.5457,-0.95498 1.00459,-1.5875 0.47129,-0.64492 0.83096,-0.94258 0.35967,-0.29765 0.85576,-0.48369 0.40928,-0.16123 0.89297,-0.16123 0.94258,0 1.66191,0.55811 0.73174,0.5581 1.11621,1.5999 0.39688,1.0418 0.39688,2.39365 0,1.94717 -0.88057,3.74551 -0.86816,1.78594 -2.29443,2.88975 -1.41387,1.10381 -2.92695,1.10381 -0.88057,0 -1.47588,-0.37208 -0.58291,-0.37207 -1.07901,-1.27744 l -0.0868,0.21084 -0.0744,0.27285 q -0.80615,2.59209 -1.28984,3.80752 -0.47129,1.22784 -0.81856,1.50069 -0.27285,0.26045 -0.63252,0.26045 -0.70693,0 -1.1038,-0.69453 -0.39688,-0.69454 -0.39688,-1.94717 0,-1.36426 0.29766,-3.27422 0.29765,-1.90996 0.81855,-3.89434 0.5333,-1.98437 1.17822,-3.60908 0.42168,-0.99219 0.93018,-1.73633 0.5085,-0.74414 0.96738,-1.079 0.33487,-0.19844 0.71934,-0.19844 0.57051,0 0.88057,0.31006 0.31005,0.31006 0.31005,0.88057 0,0.48369 -0.0992,1.0666 -0.0744,0.57051 -0.13642,1.31465 z" />
    <path
       inkscape:connector-curvature="0"
       id="path1028"
       style="font-style:normal;font-variant:normal;font-weight:normal;font-stretch:normal;font-size:25.39999962px;line-height:1.25;font-family:Forte;-inkscape-font-specification:'Forte, Normal';font-variant-ligatures:normal;font-variant-caps:normal;font-variant-numeric:normal;font-feature-settings:normal;text-align:start;letter-spacing:16.93333244px;word-spacing:0px;writing-mode:lr-tb;text-anchor:start;fill:none;fill-opacity:1;stroke:#ffffff;stroke-width:2.11666656;stroke-miterlimit:4;stroke-dasharray:none;stroke-opacity:1"
       d="m 123.62139,266.10166 q 0.34727,1.01699 1.31465,1.01699 0.68213,0 1.26504,-0.60771 0.59531,-0.62012 0.94258,-1.66191 0.35966,-1.0542 0.35966,-2.20762 0,-0.91778 -0.14882,-1.5875 -0.13643,-0.66973 -0.31006,-0.66973 -0.12403,0 -0.63252,0.65733 -0.5085,0.65732 -1.01699,1.52548 -1.0418,1.68672 -1.5751,2.97657 -0.13643,0.33486 -0.19844,0.5581 z m 0.95498,-5.3082 0.38447,-0.71934 q 0.54571,-0.95498 1.00459,-1.5875 0.47129,-0.64492 0.83096,-0.94257 0.35967,-0.29766 0.85576,-0.4837 0.40928,-0.16123 0.89297,-0.16123 0.94258,0 1.66192,0.55811 0.73173,0.5581 1.11621,1.5999 0.39687,1.0418 0.39687,2.39365 0,1.94717 -0.88057,3.74551 -0.86816,1.78594 -2.29443,2.88975 -1.41387,1.10381 -2.92695,1.10381 -0.88057,0 -1.47588,-0.37207 -0.58291,-0.37207 -1.079,-1.27745 l -0.0868,0.21084 -0.0744,0.27286 q -0.80615,2.59209 -1.28984,3.80751 -0.47129,1.22784 -0.81855,1.50069 -0.27286,0.26045 -0.63252,0.26045 -0.70694,0 -1.10381,-0.69453 -0.39688,-0.69453 -0.39688,-1.94717 0,-1.36426 0.29766,-3.27422 0.29766,-1.90996 0.81855,-3.89434 0.53331,-1.98437 1.17823,-3.60908 0.42168,-0.99219 0.93017,-1.73633 0.5085,-0.74414 0.96739,-1.079 0.33486,-0.19844 0.71933,-0.19844 0.57051,0 0.88057,0.31006 0.31006,0.31006 0.31006,0.88057 0,0.48369 -0.0992,1.0666 -0.0744,0.57051 -0.13643,1.31465 z" />
    <path
       inkscape:connector-curvature="0"
       id="path1045"
       style="font-style:normal;font-variant:normal;font-weight:normal;font-stretch:normal;font-size:25.39999962px;line-height:1.25;font-family:Forte;-inkscape-font-specification:'Forte, Normal';font-variant-ligatures:normal;font-variant-caps:normal;font-variant-numeric:normal;font-feature-settings:normal;text-align:start;letter-spacing:16.93333244px;word-spacing:0px;writing-mode:lr-tb;text-anchor:start;fill:none;fill-opacity:1;stroke:#2c89a0;stroke-width:1.05833328;stroke-miterlimit:4;stroke-dasharray:none"
       d="m 123.62139,266.10166 q 0.34727,1.01699 1.31465,1.01699 0.68213,0 1.26504,-0.60771 0.59531,-0.62012 0.94258,-1.66191 0.35966,-1.0542 0.35966,-2.20762 0,-0.91778 -0.14882,-1.5875 -0.13643,-0.66973 -0.31006,-0.66973 -0.12403,0 -0.63252,0.65733 -0.5085,0.65732 -1.01699,1.52548 -1.0418,1.68672 -1.5751,2.97657 -0.13643,0.33486 -0.19844,0.5581 z m 0.95498,-5.3082 0.38447,-0.71934 q 0.54571,-0.95498 1.00459,-1.5875 0.47129,-0.64492 0.83096,-0.94257 0.35967,-0.29766 0.85576,-0.4837 0.40928,-0.16123 0.89297,-0.16123 0.94258,0 1.66192,0.55811 0.73173,0.5581 1.11621,1.5999 0.39687,1.0418 0.39687,2.39365 0,1.94717 -0.88057,3.74551 -0.86816,1.78594 -2.29443,2.88975 -1.41387,1.10381 -2.92695,1.10381 -0.88057,0 -1.47588,-0.37207 -0.58291,-0.37207 -1.079,-1.27745 l -0.0868,0.21084 -0.0744,0.27286 q -0.80615,2.59209 -1.28984,3.80751 -0.47129,1.22784 -0.81855,1.50069 -0.27286,0.26045 -0.63252,0.26045 -0.70694,0 -1.10381,-0.69453 -0.39688,-0.69453 -0.39688,-1.94717 0,-1.36426 0.29766,-3.27422 0.29766,-1.90996 0.81855,-3.89434 0.53331,-1.98437 1.17823,-3.60908 0.42168,-0.99219 0.93017,-1.73633 0.5085,-0.74414 0.96739,-1.079 0.33486,-0.19844 0.71933,-0.19844 0.57051,0 0.88057,0.31006 0.31006,0.31006 0.31006,0.88057 0,0.48369 -0.0992,1.0666 -0.0744,0.57051 -0.13643,1.31465 z" />
    <path
       inkscape:connector-curvature="0"
       id="path1062"
       style="font-style:normal;font-variant:normal;font-weight:normal;font-stretch:normal;font-size:25.39999962px;line-height:1.25;font-family:Forte;-inkscape-font-specification:'Forte, Normal';font-variant-ligatures:normal;font-variant-caps:normal;font-variant-numeric:normal;font-feature-settings:normal;text-align:start;letter-spacing:16.93333244px;word-spacing:0px;writing-mode:lr-tb;text-anchor:start;fill:#ffffff;fill-opacity:1;stroke:none;stroke-width:0.26458332"
       d="m 123.62139,266.10166 q 0.34727,1.01699 1.31465,1.01699 0.68213,0 1.26504,-0.60771 0.59531,-0.62012 0.94258,-1.66191 0.35966,-1.0542 0.35966,-2.20762 0,-0.91778 -0.14882,-1.5875 -0.13643,-0.66973 -0.31006,-0.66973 -0.12403,0 -0.63252,0.65733 -0.5085,0.65732 -1.01699,1.52548 -1.0418,1.68672 -1.5751,2.97657 -0.13643,0.33486 -0.19844,0.5581 z m 0.95498,-5.3082 0.38447,-0.71934 q 0.54571,-0.95498 1.00459,-1.5875 0.47129,-0.64492 0.83096,-0.94257 0.35967,-0.29766 0.85576,-0.4837 0.40928,-0.16123 0.89297,-0.16123 0.94258,0 1.66192,0.55811 0.73173,0.5581 1.11621,1.5999 0.39687,1.0418 0.39687,2.39365 0,1.94717 -0.88057,3.74551 -0.86816,1.78594 -2.29443,2.88975 -1.41387,1.10381 -2.92695,1.10381 -0.88057,0 -1.47588,-0.37207 -0.58291,-0.37207 -1.079,-1.27745 l -0.0868,0.21084 -0.0744,0.27286 q -0.80615,2.59209 -1.28984,3.80751 -0.47129,1.22784 -0.81855,1.50069 -0.27286,0.26045 -0.63252,0.26045 -0.70694,0 -1.10381,-0.69453 -0.39688,-0.69453 -0.39688,-1.94717 0,-1.36426 0.29766,-3.27422 0.29766,-1.90996 0.81855,-3.89434 0.53331,-1.98437 1.17823,-3.60908 0.42168,-0.99219 0.93017,-1.73633 0.5085,-0.74414 0.96739,-1.079 0.33486,-0.19844 0.71933,-0.19844 0.57051,0 0.88057,0.31006 0.31006,0.31006 0.31006,0.88057 0,0.48369 -0.0992,1.0666 -0.0744,0.57051 -0.13643,1.31465 z" />
    <path
       inkscape:connector-curvature="0"
       id="path1009"
       style="font-style:normal;font-variant:normal;font-weight:normal;font-stretch:normal;font-size:25.39999962px;line-height:1.25;font-family:Forte;-inkscape-font-specification:'Forte, Normal';font-variant-ligatures:normal;font-variant-caps:normal;font-variant-numeric:normal;font-feature-settings:normal;text-align:start;letter-spacing:16.93333244px;word-spacing:0px;writing-mode:lr-tb;text-anchor:start;fill:none;fill-opacity:1;stroke:#000000;stroke-width:2.11666656;stroke-miterlimit:4;stroke-dasharray:none;stroke-opacity:1;filter:url(#filter995)"
       d="m 117.28794,263.02174 -0.23565,0.0744 q -0.89297,0.24805 -1.28984,0.24805 -0.48369,0 -0.48369,-0.24805 0,-0.0868 0.19843,-0.45888 0.69453,-1.0542 0.69453,-1.98438 0,-0.5333 -0.18603,-0.96738 -0.18604,-0.44649 -0.40928,-0.44649 -0.19843,0 -0.60771,0.42168 -1.15342,1.25264 -1.83555,2.56729 -0.66973,1.31465 -0.66973,2.34404 0,0.68213 0.27286,1.12862 0.28525,0.44648 0.70693,0.44648 0.35967,0 1.33945,-0.76895 0.99219,-0.76894 2.22002,-2.03398 l 0.33487,-0.27285 z m -0.74414,2.84014 v 0.0496 l -0.0496,-0.0496 q -1.15342,1.35185 -2.1208,2.22002 -0.95499,0.85576 -1.77354,1.28984 -0.80615,0.43408 -1.48828,0.43408 -1.38906,0 -2.29443,-0.93017 -0.90538,-0.93018 -0.90538,-2.35645 0,-0.88057 0.44649,-2.08359 0.44648,-1.20303 1.22783,-2.35645 1.30225,-1.88515 3.27422,-3.1998 2.03398,-1.35186 3.91914,-1.35186 1.5875,0 2.60449,0.65733 1.0294,0.64492 1.0294,1.63711 0,0.73173 -0.5085,1.55029 0.66973,0 0.84336,0.14883 0.17363,0.13642 0.17363,0.65732 0,-0.0496 -0.062,0.5085 -0.0744,1.22783 -0.0744,2.29443 0,0.55811 0.0124,0.84336 0.0124,0.28525 0.0496,0.65732 0.0372,0.37207 0.0744,0.59532 0.0992,0.58291 0.32246,1.15341 -0.74414,0.73174 -1.42627,1.07901 -0.68212,0.33486 -1.38906,0.33486 -1.90996,0 -1.90996,-3.1998 0,-0.37207 0.0248,-0.58291 z" />
    <path
       inkscape:connector-curvature="0"
       id="path1026"
       style="font-style:normal;font-variant:normal;font-weight:normal;font-stretch:normal;font-size:25.39999962px;line-height:1.25;font-family:Forte;-inkscape-font-specification:'Forte, Normal';font-variant-ligatures:normal;font-variant-caps:normal;font-variant-numeric:normal;font-feature-settings:normal;text-align:start;letter-spacing:16.93333244px;word-spacing:0px;writing-mode:lr-tb;text-anchor:start;fill:none;fill-opacity:1;stroke:#ffffff;stroke-width:2.11666656;stroke-miterlimit:4;stroke-dasharray:none;stroke-opacity:1"
       d="m 116.75877,262.49258 -0.23565,0.0744 q -0.89296,0.24805 -1.28984,0.24805 -0.48369,0 -0.48369,-0.24805 0,-0.0868 0.19844,-0.45888 0.69453,-1.0542 0.69453,-1.98438 0,-0.5333 -0.18604,-0.96738 -0.18603,-0.44648 -0.40927,-0.44648 -0.19844,0 -0.60772,0.42168 -1.15342,1.25263 -1.83555,2.56728 -0.66972,1.31465 -0.66972,2.34404 0,0.68213 0.27285,1.12862 0.28525,0.44648 0.70693,0.44648 0.35967,0 1.33946,-0.76894 0.99218,-0.76895 2.22001,-2.03399 l 0.33487,-0.27285 z m -0.74414,2.84014 v 0.0496 l -0.0496,-0.0496 q -1.15342,1.35185 -2.1208,2.22002 -0.95498,0.85576 -1.77354,1.28984 -0.80615,0.43408 -1.48828,0.43408 -1.38906,0 -2.29443,-0.93017 -0.90537,-0.93018 -0.90537,-2.35645 0,-0.88057 0.44648,-2.08359 0.44649,-1.20303 1.22783,-2.35645 1.30225,-1.88515 3.27422,-3.1998 2.03399,-1.35186 3.91914,-1.35186 1.5875,0 2.60449,0.65733 1.0294,0.64492 1.0294,1.63711 0,0.73173 -0.5085,1.55029 0.66973,0 0.84336,0.14883 0.17364,0.13642 0.17364,0.65732 0,-0.0496 -0.062,0.5085 -0.0744,1.22783 -0.0744,2.29443 0,0.55811 0.0124,0.84336 0.0124,0.28525 0.0496,0.65732 0.0372,0.37207 0.0744,0.59532 0.0992,0.58291 0.32246,1.15341 -0.74414,0.73174 -1.42627,1.07901 -0.68213,0.33486 -1.38907,0.33486 -1.90996,0 -1.90996,-3.1998 0,-0.37207 0.0248,-0.58291 z" />
    <path
       inkscape:connector-curvature="0"
       id="path1043"
       style="font-style:normal;font-variant:normal;font-weight:normal;font-stretch:normal;font-size:25.39999962px;line-height:1.25;font-family:Forte;-inkscape-font-specification:'Forte, Normal';font-variant-ligatures:normal;font-variant-caps:normal;font-variant-numeric:normal;font-feature-settings:normal;text-align:start;letter-spacing:16.93333244px;word-spacing:0px;writing-mode:lr-tb;text-anchor:start;fill:none;fill-opacity:1;stroke:#2c89a0;stroke-width:1.05833328;stroke-miterlimit:4;stroke-dasharray:none"
       d="m 116.75877,262.49258 -0.23565,0.0744 q -0.89296,0.24805 -1.28984,0.24805 -0.48369,0 -0.48369,-0.24805 0,-0.0868 0.19844,-0.45888 0.69453,-1.0542 0.69453,-1.98438 0,-0.5333 -0.18604,-0.96738 -0.18603,-0.44648 -0.40927,-0.44648 -0.19844,0 -0.60772,0.42168 -1.15342,1.25263 -1.83555,2.56728 -0.66972,1.31465 -0.66972,2.34404 0,0.68213 0.27285,1.12862 0.28525,0.44648 0.70693,0.44648 0.35967,0 1.33946,-0.76894 0.99218,-0.76895 2.22001,-2.03399 l 0.33487,-0.27285 z m -0.74414,2.84014 v 0.0496 l -0.0496,-0.0496 q -1.15342,1.35185 -2.1208,2.22002 -0.95498,0.85576 -1.77354,1.28984 -0.80615,0.43408 -1.48828,0.43408 -1.38906,0 -2.29443,-0.93017 -0.90537,-0.93018 -0.90537,-2.35645 0,-0.88057 0.44648,-2.08359 0.44649,-1.20303 1.22783,-2.35645 1.30225,-1.88515 3.27422,-3.1998 2.03399,-1.35186 3.91914,-1.35186 1.5875,0 2.60449,0.65733 1.0294,0.64492 1.0294,1.63711 0,0.73173 -0.5085,1.55029 0.66973,0 0.84336,0.14883 0.17364,0.13642 0.17364,0.65732 0,-0.0496 -0.062,0.5085 -0.0744,1.22783 -0.0744,2.29443 0,0.55811 0.0124,0.84336 0.0124,0.28525 0.0496,0.65732 0.0372,0.37207 0.0744,0.59532 0.0992,0.58291 0.32246,1.15341 -0.74414,0.73174 -1.42627,1.07901 -0.68213,0.33486 -1.38907,0.33486 -1.90996,0 -1.90996,-3.1998 0,-0.37207 0.0248,-0.58291 z" />
    <path
       inkscape:connector-curvature="0"
       id="path1060"
       style="font-style:normal;font-variant:normal;font-weight:normal;font-stretch:normal;font-size:25.39999962px;line-height:1.25;font-family:Forte;-inkscape-font-specification:'Forte, Normal';font-variant-ligatures:normal;font-variant-caps:normal;font-variant-numeric:normal;font-feature-settings:normal;text-align:start;letter-spacing:16.93333244px;word-spacing:0px;writing-mode:lr-tb;text-anchor:start;fill:#ffffff;fill-opacity:1;stroke:none;stroke-width:0.26458332"
       d="m 116.75877,262.49258 -0.23565,0.0744 q -0.89296,0.24805 -1.28984,0.24805 -0.48369,0 -0.48369,-0.24805 0,-0.0868 0.19844,-0.45888 0.69453,-1.0542 0.69453,-1.98438 0,-0.5333 -0.18604,-0.96738 -0.18603,-0.44648 -0.40927,-0.44648 -0.19844,0 -0.60772,0.42168 -1.15342,1.25263 -1.83555,2.56728 -0.66972,1.31465 -0.66972,2.34404 0,0.68213 0.27285,1.12862 0.28525,0.44648 0.70693,0.44648 0.35967,0 1.33946,-0.76894 0.99218,-0.76895 2.22001,-2.03399 l 0.33487,-0.27285 z m -0.74414,2.84014 v 0.0496 l -0.0496,-0.0496 q -1.15342,1.35185 -2.1208,2.22002 -0.95498,0.85576 -1.77354,1.28984 -0.80615,0.43408 -1.48828,0.43408 -1.38906,0 -2.29443,-0.93017 -0.90537,-0.93018 -0.90537,-2.35645 0,-0.88057 0.44648,-2.08359 0.44649,-1.20303 1.22783,-2.35645 1.30225,-1.88515 3.27422,-3.1998 2.03399,-1.35186 3.91914,-1.35186 1.5875,0 2.60449,0.65733 1.0294,0.64492 1.0294,1.63711 0,0.73173 -0.5085,1.55029 0.66973,0 0.84336,0.14883 0.17364,0.13642 0.17364,0.65732 0,-0.0496 -0.062,0.5085 -0.0744,1.22783 -0.0744,2.29443 0,0.55811 0.0124,0.84336 0.0124,0.28525 0.0496,0.65732 0.0372,0.37207 0.0744,0.59532 0.0992,0.58291 0.32246,1.15341 -0.74414,0.73174 -1.42627,1.07901 -0.68213,0.33486 -1.38907,0.33486 -1.90996,0 -1.90996,-3.1998 0,-0.37207 0.0248,-0.58291 z" />
    <path
       inkscape:connector-curvature="0"
       id="path1007"
       style="font-style:normal;font-variant:normal;font-weight:normal;font-stretch:normal;font-size:25.39999962px;line-height:1.25;font-family:Forte;-inkscape-font-specification:'Forte, Normal';font-variant-ligatures:normal;font-variant-caps:normal;font-variant-numeric:normal;font-feature-settings:normal;text-align:start;letter-spacing:16.93333244px;word-spacing:0px;writing-mode:lr-tb;text-anchor:start;fill:none;fill-opacity:1;stroke:#000000;stroke-width:2.11666656;stroke-miterlimit:4;stroke-dasharray:none;stroke-opacity:1;filter:url(#filter995)"
       d="m 108.77578,257.5027 q 0.94258,0.0372 1.50069,0.5457 0.5581,0.5085 0.5581,1.36426 0,0.74414 -0.43408,1.50068 -0.42168,0.75654 -1.079,1.24024 -0.64492,0.48369 -1.30225,0.48369 -0.38447,0 -0.38447,-0.27285 0,-0.0992 0.14883,-0.43409 0.48369,-0.81855 0.48369,-1.88515 0,-0.5333 -0.12403,-0.5333 -0.17363,0 -0.49609,0.44648 -0.32246,0.44649 -0.5457,1.0542 -0.38448,0.95498 -0.64492,2.03398 -0.24805,1.07901 -0.24805,1.82315 0,0.84336 0.24805,1.32705 0.26044,0.48369 0.71933,0.48369 0.42168,0 1.12861,-0.44648 0.70694,-0.44649 1.33946,-1.10381 0.26045,-0.33487 0.45888,-0.33487 0.29766,0 0.29766,0.33487 0,1.52549 -1.19062,2.76572 -0.81856,0.81856 -1.88516,1.32705 -1.0542,0.4961 -1.89756,0.4961 -1.47588,0 -2.45566,-0.93018 -0.97979,-0.93018 -0.97979,-2.34404 0,-1.41387 0.62012,-2.96416 0.63252,-1.5627 1.71152,-2.96416 1.09141,-1.40147 2.46807,-2.34405 0.99219,-0.66972 1.93476,-0.66972 z" />
    <path
       inkscape:connector-curvature="0"
       id="path1024"
       style="font-style:normal;font-variant:normal;font-weight:normal;font-stretch:normal;font-size:25.39999962px;line-height:1.25;font-family:Forte;-inkscape-font-specification:'Forte, Normal';font-variant-ligatures:normal;font-variant-caps:normal;font-variant-numeric:normal;font-feature-settings:normal;text-align:start;letter-spacing:16.93333244px;word-spacing:0px;writing-mode:lr-tb;text-anchor:start;fill:none;fill-opacity:1;stroke:#ffffff;stroke-width:2.11666656;stroke-miterlimit:4;stroke-dasharray:none;stroke-opacity:1"
       d="m 108.24662,256.97354 q 0.94257,0.0372 1.50068,0.5457 0.55811,0.5085 0.55811,1.36426 0,0.74414 -0.43409,1.50068 -0.42168,0.75654 -1.079,1.24024 -0.64492,0.48369 -1.30225,0.48369 -0.38447,0 -0.38447,-0.27285 0,-0.0992 0.14883,-0.43409 0.48369,-0.81855 0.48369,-1.88515 0,-0.5333 -0.12402,-0.5333 -0.17364,0 -0.4961,0.44648 -0.32246,0.44649 -0.5457,1.0542 -0.38447,0.95498 -0.64492,2.03398 -0.24805,1.07901 -0.24805,1.82315 0,0.84336 0.24805,1.32705 0.26045,0.48369 0.71933,0.48369 0.42168,0 1.12862,-0.44648 0.70693,-0.44649 1.33945,-1.10381 0.26045,-0.33486 0.45889,-0.33486 0.29765,0 0.29765,0.33486 0,1.52549 -1.19062,2.76572 -0.81856,0.81856 -1.88516,1.32705 -1.0542,0.4961 -1.89756,0.4961 -1.47587,0 -2.45566,-0.93018 -0.97979,-0.93018 -0.97979,-2.34404 0,-1.41387 0.62012,-2.96416 0.63252,-1.5627 1.71153,-2.96416 1.0914,-1.40147 2.46806,-2.34405 0.99219,-0.66972 1.93477,-0.66972 z" />
    <path
       inkscape:connector-curvature="0"
       id="path1041"
       style="font-style:normal;font-variant:normal;font-weight:normal;font-stretch:normal;font-size:25.39999962px;line-height:1.25;font-family:Forte;-inkscape-font-specification:'Forte, Normal';font-variant-ligatures:normal;font-variant-caps:normal;font-variant-numeric:normal;font-feature-settings:normal;text-align:start;letter-spacing:16.93333244px;word-spacing:0px;writing-mode:lr-tb;text-anchor:start;fill:none;fill-opacity:1;stroke:#2c89a0;stroke-width:1.05833328;stroke-miterlimit:4;stroke-dasharray:none"
       d="m 108.24662,256.97354 q 0.94257,0.0372 1.50068,0.5457 0.55811,0.5085 0.55811,1.36426 0,0.74414 -0.43409,1.50068 -0.42168,0.75654 -1.079,1.24024 -0.64492,0.48369 -1.30225,0.48369 -0.38447,0 -0.38447,-0.27285 0,-0.0992 0.14883,-0.43409 0.48369,-0.81855 0.48369,-1.88515 0,-0.5333 -0.12402,-0.5333 -0.17364,0 -0.4961,0.44648 -0.32246,0.44649 -0.5457,1.0542 -0.38447,0.95498 -0.64492,2.03398 -0.24805,1.07901 -0.24805,1.82315 0,0.84336 0.24805,1.32705 0.26045,0.48369 0.71933,0.48369 0.42168,0 1.12862,-0.44648 0.70693,-0.44649 1.33945,-1.10381 0.26045,-0.33486 0.45889,-0.33486 0.29765,0 0.29765,0.33486 0,1.52549 -1.19062,2.76572 -0.81856,0.81856 -1.88516,1.32705 -1.0542,0.4961 -1.89756,0.4961 -1.47587,0 -2.45566,-0.93018 -0.97979,-0.93018 -0.97979,-2.34404 0,-1.41387 0.62012,-2.96416 0.63252,-1.5627 1.71153,-2.96416 1.0914,-1.40147 2.46806,-2.34405 0.99219,-0.66972 1.93477,-0.66972 z" />
    <path
       inkscape:connector-curvature="0"
       id="path1058"
       style="font-style:normal;font-variant:normal;font-weight:normal;font-stretch:normal;font-size:25.39999962px;line-height:1.25;font-family:Forte;-inkscape-font-specification:'Forte, Normal';font-variant-ligatures:normal;font-variant-caps:normal;font-variant-numeric:normal;font-feature-settings:normal;text-align:start;letter-spacing:16.93333244px;word-spacing:0px;writing-mode:lr-tb;text-anchor:start;fill:#ffffff;fill-opacity:1;stroke:none;stroke-width:0.26458332"
       d="m 108.24662,256.97354 q 0.94257,0.0372 1.50068,0.5457 0.55811,0.5085 0.55811,1.36426 0,0.74414 -0.43409,1.50068 -0.42168,0.75654 -1.079,1.24024 -0.64492,0.48369 -1.30225,0.48369 -0.38447,0 -0.38447,-0.27285 0,-0.0992 0.14883,-0.43409 0.48369,-0.81855 0.48369,-1.88515 0,-0.5333 -0.12402,-0.5333 -0.17364,0 -0.4961,0.44648 -0.32246,0.44649 -0.5457,1.0542 -0.38447,0.95498 -0.64492,2.03398 -0.24805,1.07901 -0.24805,1.82315 0,0.84336 0.24805,1.32705 0.26045,0.48369 0.71933,0.48369 0.42168,0 1.12862,-0.44648 0.70693,-0.44649 1.33945,-1.10381 0.26045,-0.33486 0.45889,-0.33486 0.29765,0 0.29765,0.33486 0,1.52549 -1.19062,2.76572 -0.81856,0.81856 -1.88516,1.32705 -1.0542,0.4961 -1.89756,0.4961 -1.47587,0 -2.45566,-0.93018 -0.97979,-0.93018 -0.97979,-2.34404 0,-1.41387 0.62012,-2.96416 0.63252,-1.5627 1.71153,-2.96416 1.0914,-1.40147 2.46806,-2.34405 0.99219,-0.66972 1.93477,-0.66972 z" />
    <path
       inkscape:connector-curvature="0"
       id="path1005"
       style="font-style:normal;font-variant:normal;font-weight:normal;font-stretch:normal;font-size:25.39999962px;line-height:1.25;font-family:Forte;-inkscape-font-specification:'Forte, Normal';font-variant-ligatures:normal;font-variant-caps:normal;font-variant-numeric:normal;font-feature-settings:normal;text-align:start;letter-spacing:16.93333244px;word-spacing:0px;writing-mode:lr-tb;text-anchor:start;fill:none;fill-opacity:1;stroke:#000000;stroke-width:2.11666656;stroke-miterlimit:4;stroke-dasharray:none;stroke-opacity:1;filter:url(#filter995)"
       d="m 96.910877,270.00426 q 0.73174,-0.0372 1.32706,-0.70693 0.60771,-0.68213 0.60771,-1.47588 0,-0.54571 -0.35967,-0.86817 -0.38447,-0.38447 -1.72392,-0.75654 -1.97198,-0.57051 -2.56729,-1.27744 -0.5581,-0.57051 -0.5581,-1.36426 0,-1.42627 1.02939,-2.85254 1.0418,-1.42627 2.6541,-2.33164 1.61231,-0.91777 3.249423,-0.91777 0.79375,0 1.48828,0.37207 0.69453,0.37207 1.10381,0.99219 0.40927,0.60771 0.40927,1.32705 0,0.70693 -0.44648,1.46347 -0.44649,0.75655 -1.12861,1.26504 -0.66973,0.4961 -1.27745,0.4961 -0.34726,0 -0.60771,-0.14883 -0.248053,-0.14883 -0.248053,-0.32246 0,-0.17364 0.0992,-0.5085 0.272853,-1.0666 0.272853,-1.86035 0,-0.78135 -0.471293,-1.47588 -0.60771,0.42168 -0.79375,0.66973 -0.47129,0.5457 -0.73173,1.24023 -0.28526,0.70693 -0.28526,1.33945 0,0.44649 0.19844,0.71934 0.21084,0.26045 0.66973,0.44648 0.47128,0.18604 1.413863,0.40928 1.5751,0.38447 2.22002,0.74414 0.14883,0.0868 0.45889,0.35967 0.47129,0.5085 0.47129,1.31465 0,0.85576 -0.5333,1.73633 -0.5333,0.86816 -1.64951,1.79834 -1.19063,1.00459 -2.368853,1.43867 -1.17822,0.43408 -2.60449,0.43408 -1.37666,0 -2.17041,-0.5457 -0.78135,-0.54571 -0.78135,-1.48828 0,-0.66973 0.5209,-1.35186 0.5209,-0.69453 1.28984,-1.12861 0.78135,-0.43408 1.52549,-0.43408 0.5581,0 0.5581,0.24804 0,0.12403 -0.16123,0.40928 -0.48369,0.86816 -0.48369,1.5999 0,0.5209 0.38447,0.99219 z" />
    <path
       inkscape:connector-curvature="0"
       id="path1022"
       style="font-style:normal;font-variant:normal;font-weight:normal;font-stretch:normal;font-size:25.39999962px;line-height:1.25;font-family:Forte;-inkscape-font-specification:'Forte, Normal';font-variant-ligatures:normal;font-variant-caps:normal;font-variant-numeric:normal;font-feature-settings:normal;text-align:start;letter-spacing:16.93333244px;word-spacing:0px;writing-mode:lr-tb;text-anchor:start;fill:none;fill-opacity:1;stroke:#ffffff;stroke-width:2.11666656;stroke-miterlimit:4;stroke-dasharray:none;stroke-opacity:1"
       d="m 96.381717,269.4751 q 0.73174,-0.0372 1.32705,-0.70693 0.60771,-0.68213 0.60771,-1.47588 0,-0.54571 -0.35966,-0.86817 -0.38448,-0.38447 -1.72393,-0.75654 -1.97197,-0.57051 -2.56729,-1.27744 -0.5581,-0.57051 -0.5581,-1.36426 0,-1.42627 1.02939,-2.85254 1.0418,-1.42627 2.65411,-2.33164 1.6123,-0.91777 3.249413,-0.91777 0.79375,0 1.48828,0.37207 0.69453,0.37207 1.10381,0.99219 0.40928,0.60771 0.40928,1.32705 0,0.70693 -0.44649,1.46347 -0.44648,0.75655 -1.12861,1.26504 -0.66973,0.4961 -1.27744,0.4961 -0.347273,0 -0.607723,-0.14883 -0.24804,-0.14883 -0.24804,-0.32246 0,-0.17364 0.0992,-0.5085 0.27286,-1.0666 0.27286,-1.86035 0,-0.78135 -0.47129,-1.47588 -0.60772,0.42168 -0.79375,0.66973 -0.47129,0.5457 -0.73174,1.24023 -0.28526,0.70693 -0.28526,1.33945 0,0.44649 0.19844,0.71934 0.21084,0.26045 0.66973,0.44648 0.47129,0.18604 1.41387,0.40928 1.575093,0.38447 2.220023,0.74414 0.14882,0.0868 0.45888,0.35967 0.47129,0.5085 0.47129,1.31465 0,0.85576 -0.5333,1.73633 -0.5333,0.86816 -1.64951,1.79834 -1.190633,1.00459 -2.368853,1.43867 -1.17822,0.43408 -2.60449,0.43408 -1.37666,0 -2.17041,-0.5457 -0.78135,-0.54571 -0.78135,-1.48828 0,-0.66973 0.5209,-1.35186 0.5209,-0.69453 1.28984,-1.12861 0.78135,-0.43408 1.52549,-0.43408 0.55811,0 0.55811,0.24804 0,0.12403 -0.16123,0.40928 -0.48369,0.86816 -0.48369,1.5999 0,0.5209 0.38447,0.99219 z" />
    <path
       inkscape:connector-curvature="0"
       id="path1039"
       style="font-style:normal;font-variant:normal;font-weight:normal;font-stretch:normal;font-size:25.39999962px;line-height:1.25;font-family:Forte;-inkscape-font-specification:'Forte, Normal';font-variant-ligatures:normal;font-variant-caps:normal;font-variant-numeric:normal;font-feature-settings:normal;text-align:start;letter-spacing:16.93333244px;word-spacing:0px;writing-mode:lr-tb;text-anchor:start;fill:none;fill-opacity:1;stroke:#2c89a0;stroke-width:1.05833328;stroke-miterlimit:4;stroke-dasharray:none"
       d="m 96.381717,269.4751 q 0.73174,-0.0372 1.32705,-0.70693 0.60771,-0.68213 0.60771,-1.47588 0,-0.54571 -0.35966,-0.86817 -0.38448,-0.38447 -1.72393,-0.75654 -1.97197,-0.57051 -2.56729,-1.27744 -0.5581,-0.57051 -0.5581,-1.36426 0,-1.42627 1.02939,-2.85254 1.0418,-1.42627 2.65411,-2.33164 1.6123,-0.91777 3.249413,-0.91777 0.79375,0 1.48828,0.37207 0.69453,0.37207 1.10381,0.99219 0.40928,0.60771 0.40928,1.32705 0,0.70693 -0.44649,1.46347 -0.44648,0.75655 -1.12861,1.26504 -0.66973,0.4961 -1.27744,0.4961 -0.347273,0 -0.607723,-0.14883 -0.24804,-0.14883 -0.24804,-0.32246 0,-0.17364 0.0992,-0.5085 0.27286,-1.0666 0.27286,-1.86035 0,-0.78135 -0.47129,-1.47588 -0.60772,0.42168 -0.79375,0.66973 -0.47129,0.5457 -0.73174,1.24023 -0.28526,0.70693 -0.28526,1.33945 0,0.44649 0.19844,0.71934 0.21084,0.26045 0.66973,0.44648 0.47129,0.18604 1.41387,0.40928 1.575093,0.38447 2.220023,0.74414 0.14882,0.0868 0.45888,0.35967 0.47129,0.5085 0.47129,1.31465 0,0.85576 -0.5333,1.73633 -0.5333,0.86816 -1.64951,1.79834 -1.190633,1.00459 -2.368853,1.43867 -1.17822,0.43408 -2.60449,0.43408 -1.37666,0 -2.17041,-0.5457 -0.78135,-0.54571 -0.78135,-1.48828 0,-0.66973 0.5209,-1.35186 0.5209,-0.69453 1.28984,-1.12861 0.78135,-0.43408 1.52549,-0.43408 0.55811,0 0.55811,0.24804 0,0.12403 -0.16123,0.40928 -0.48369,0.86816 -0.48369,1.5999 0,0.5209 0.38447,0.99219 z" />
    <path
       inkscape:connector-curvature="0"
       id="path1056"
       style="font-style:normal;font-variant:normal;font-weight:normal;font-stretch:normal;font-size:25.39999962px;line-height:1.25;font-family:Forte;-inkscape-font-specification:'Forte, Normal';font-variant-ligatures:normal;font-variant-caps:normal;font-variant-numeric:normal;font-feature-settings:normal;text-align:start;letter-spacing:16.93333244px;word-spacing:0px;writing-mode:lr-tb;text-anchor:start;fill:#ffffff;fill-opacity:1;stroke:none;stroke-width:0.26458332"
       d="m 96.381717,269.4751 q 0.73174,-0.0372 1.32705,-0.70693 0.60771,-0.68213 0.60771,-1.47588 0,-0.54571 -0.35966,-0.86817 -0.38448,-0.38447 -1.72393,-0.75654 -1.97197,-0.57051 -2.56729,-1.27744 -0.5581,-0.57051 -0.5581,-1.36426 0,-1.42627 1.02939,-2.85254 1.0418,-1.42627 2.65411,-2.33164 1.6123,-0.91777 3.249413,-0.91777 0.79375,0 1.48828,0.37207 0.69453,0.37207 1.10381,0.99219 0.40928,0.60771 0.40928,1.32705 0,0.70693 -0.44649,1.46347 -0.44648,0.75655 -1.12861,1.26504 -0.66973,0.4961 -1.27744,0.4961 -0.347273,0 -0.607723,-0.14883 -0.24804,-0.14883 -0.24804,-0.32246 0,-0.17364 0.0992,-0.5085 0.27286,-1.0666 0.27286,-1.86035 0,-0.78135 -0.47129,-1.47588 -0.60772,0.42168 -0.79375,0.66973 -0.47129,0.5457 -0.73174,1.24023 -0.28526,0.70693 -0.28526,1.33945 0,0.44649 0.19844,0.71934 0.21084,0.26045 0.66973,0.44648 0.47129,0.18604 1.41387,0.40928 1.575093,0.38447 2.220023,0.74414 0.14882,0.0868 0.45888,0.35967 0.47129,0.5085 0.47129,1.31465 0,0.85576 -0.5333,1.73633 -0.5333,0.86816 -1.64951,1.79834 -1.190633,1.00459 -2.368853,1.43867 -1.17822,0.43408 -2.60449,0.43408 -1.37666,0 -2.17041,-0.5457 -0.78135,-0.54571 -0.78135,-1.48828 0,-0.66973 0.5209,-1.35186 0.5209,-0.69453 1.28984,-1.12861 0.78135,-0.43408 1.52549,-0.43408 0.55811,0 0.55811,0.24804 0,0.12403 -0.16123,0.40928 -0.48369,0.86816 -0.48369,1.5999 0,0.5209 0.38447,0.99219 z" />
    <path
       inkscape:connector-curvature="0"
       id="path1003"
       style="font-style:normal;font-variant:normal;font-weight:normal;font-stretch:normal;font-size:25.39999962px;line-height:1.25;font-family:Forte;-inkscape-font-specification:'Forte, Normal';font-variant-ligatures:normal;font-variant-caps:normal;font-variant-numeric:normal;font-feature-settings:normal;text-align:start;letter-spacing:16.93333244px;word-spacing:0px;writing-mode:lr-tb;text-anchor:start;fill:none;fill-opacity:1;stroke:#000000;stroke-width:2.11666656;stroke-miterlimit:4;stroke-dasharray:none;stroke-opacity:1;filter:url(#filter995)"
       d="m 96.02618,271.67858 q -1.73633,2.23242 -2.6417,2.23242 -0.65732,0 -1.38906,-0.5209 -0.71934,-0.5085 -1.35185,-1.38906 -0.63252,-0.86817 -1.00459,-1.88516 -0.37207,-1.01699 -0.37207,-1.93477 0,-0.52089 0.17363,-0.69453 0.0744,-0.0744 0.33486,-0.24804 2.0836,-1.28985 2.0836,-2.44327 0,-0.60771 -0.53331,-0.60771 -0.5705,0 -1.47587,1.10381 -0.89297,1.0914 -1.62471,2.6789 -0.43408,1.00459 -0.74414,1.27745 -0.28526,0.24804 -0.88057,0.24804 -0.65732,0 -1.14101,-0.35966 -0.4837,-0.37208 -0.75655,-1.0418 -0.26045,-0.68213 -0.26045,-1.55029 0,-1.33946 0.33487,-2.92696 0.33486,-1.5875 0.93017,-3.1874 0.60772,-1.5999 1.43867,-3.12539 0.83096,-1.52549 1.73633,-2.69131 1.78594,-2.25723 3.48506,-2.25723 0.84336,0 1.50068,0.38448 0.66973,0.38447 1.0294,1.0914 0.35967,0.70694 0.35967,1.64951 0,1.15342 -0.57051,2.30684 -0.57051,1.14102 -1.48828,1.87275 -0.90537,0.71934 -1.82315,0.71934 -0.43408,0 -0.43408,-0.31006 0,-0.12402 0.22324,-0.58291 1.09141,-2.15801 1.09141,-4.89892 0,-0.70694 -0.17363,-0.70694 -0.12403,0 -0.38448,0.35967 -0.24804,0.35967 -0.48369,0.88057 -1.36425,3.06338 -1.97197,7.05693 -0.0372,0.21084 -0.0868,0.55811 -0.0372,0.34726 -0.0992,0.79375 l 0.0496,0.0496 q 0.5085,-0.71934 0.83096,-1.06661 0.33487,-0.35966 0.88057,-0.76894 1.67431,-1.31465 3.12539,-1.31465 0.74414,0 1.21543,0.43408 0.48369,0.43408 0.48369,1.11621 0,1.67432 -1.0666,3.44785 -0.29766,0.5209 -0.69453,1.0294 -0.38448,0.50849 -1.11621,1.31465 0.44648,0.75654 1.01699,1.52549 0.50849,0.66972 1.27744,1.33945 0.66973,0.5581 0.96738,1.0418 z" />
    <path
       inkscape:connector-curvature="0"
       id="path1020"
       style="font-style:normal;font-variant:normal;font-weight:normal;font-stretch:normal;font-size:25.39999962px;line-height:1.25;font-family:Forte;-inkscape-font-specification:'Forte, Normal';font-variant-ligatures:normal;font-variant-caps:normal;font-variant-numeric:normal;font-feature-settings:normal;text-align:start;letter-spacing:16.93333244px;word-spacing:0px;writing-mode:lr-tb;text-anchor:start;fill:none;fill-opacity:1;stroke:#ffffff;stroke-width:2.11666656;stroke-miterlimit:4;stroke-dasharray:none;stroke-opacity:1"
       d="m 95.49702,271.14942 q -1.73633,2.23242 -2.6417,2.23242 -0.65733,0 -1.38907,-0.5209 -0.71933,-0.5085 -1.35185,-1.38906 -0.63252,-0.86817 -1.00459,-1.88516 -0.37207,-1.01699 -0.37207,-1.93476 0,-0.5209 0.17363,-0.69454 0.0744,-0.0744 0.33486,-0.24804 2.0836,-1.28985 2.0836,-2.44326 0,-0.60772 -0.5333,-0.60772 -0.57051,0 -1.47588,1.10381 -0.89297,1.09141 -1.62471,2.67891 -0.43408,1.00459 -0.74414,1.27744 -0.28525,0.24804 -0.88057,0.24804 -0.65732,0 -1.14101,-0.35966 -0.48369,-0.37207 -0.75654,-1.0418 -0.26045,-0.68213 -0.26045,-1.55029 0,-1.33946 0.33486,-2.92696 0.33486,-1.5875 0.93018,-3.1874 0.60771,-1.5999 1.43867,-3.12539 0.83095,-1.52549 1.73633,-2.69131 1.78593,-2.25723 3.48505,-2.25723 0.84336,0 1.50069,0.38448 0.66972,0.38447 1.02939,1.0914 0.35967,0.70694 0.35967,1.64952 0,1.15341 -0.57051,2.30683 -0.57051,1.14102 -1.48828,1.87276 -0.90537,0.71933 -1.82314,0.71933 -0.43409,0 -0.43409,-0.31006 0,-0.12402 0.22325,-0.58291 1.0914,-2.15801 1.0914,-4.89892 0,-0.70694 -0.17363,-0.70694 -0.12402,0 -0.38447,0.35967 -0.24805,0.35967 -0.48369,0.88057 -1.36426,3.06338 -1.97198,7.05693 -0.0372,0.21084 -0.0868,0.55811 -0.0372,0.34726 -0.0992,0.79375 l 0.0496,0.0496 q 0.50849,-0.71934 0.83095,-1.06661 0.33487,-0.35966 0.88057,-0.76894 1.67432,-1.31465 3.12539,-1.31465 0.74414,0 1.21543,0.43408 0.48369,0.43408 0.48369,1.11621 0,1.67432 -1.0666,3.44785 -0.29766,0.5209 -0.69453,1.0294 -0.38447,0.5085 -1.11621,1.31465 0.44648,0.75654 1.01699,1.52549 0.5085,0.66972 1.27744,1.33945 0.66973,0.5581 0.96739,1.0418 z" />
    <path
       inkscape:connector-curvature="0"
       id="path1037"
       style="font-style:normal;font-variant:normal;font-weight:normal;font-stretch:normal;font-size:25.39999962px;line-height:1.25;font-family:Forte;-inkscape-font-specification:'Forte, Normal';font-variant-ligatures:normal;font-variant-caps:normal;font-variant-numeric:normal;font-feature-settings:normal;text-align:start;letter-spacing:16.93333244px;word-spacing:0px;writing-mode:lr-tb;text-anchor:start;fill:none;fill-opacity:1;stroke:#2c89a0;stroke-width:1.05833328;stroke-miterlimit:4;stroke-dasharray:none"
       d="m 95.49702,271.14942 q -1.73633,2.23242 -2.6417,2.23242 -0.65733,0 -1.38907,-0.5209 -0.71933,-0.5085 -1.35185,-1.38906 -0.63252,-0.86817 -1.00459,-1.88516 -0.37207,-1.01699 -0.37207,-1.93476 0,-0.5209 0.17363,-0.69454 0.0744,-0.0744 0.33486,-0.24804 2.0836,-1.28985 2.0836,-2.44326 0,-0.60772 -0.5333,-0.60772 -0.57051,0 -1.47588,1.10381 -0.89297,1.09141 -1.62471,2.67891 -0.43408,1.00459 -0.74414,1.27744 -0.28525,0.24804 -0.88057,0.24804 -0.65732,0 -1.14101,-0.35966 -0.48369,-0.37207 -0.75654,-1.0418 -0.26045,-0.68213 -0.26045,-1.55029 0,-1.33946 0.33486,-2.92696 0.33486,-1.5875 0.93018,-3.1874 0.60771,-1.5999 1.43867,-3.12539 0.83095,-1.52549 1.73633,-2.69131 1.78593,-2.25723 3.48505,-2.25723 0.84336,0 1.50069,0.38448 0.66972,0.38447 1.02939,1.0914 0.35967,0.70694 0.35967,1.64952 0,1.15341 -0.57051,2.30683 -0.57051,1.14102 -1.48828,1.87276 -0.90537,0.71933 -1.82314,0.71933 -0.43409,0 -0.43409,-0.31006 0,-0.12402 0.22325,-0.58291 1.0914,-2.15801 1.0914,-4.89892 0,-0.70694 -0.17363,-0.70694 -0.12402,0 -0.38447,0.35967 -0.24805,0.35967 -0.48369,0.88057 -1.36426,3.06338 -1.97198,7.05693 -0.0372,0.21084 -0.0868,0.55811 -0.0372,0.34726 -0.0992,0.79375 l 0.0496,0.0496 q 0.50849,-0.71934 0.83095,-1.06661 0.33487,-0.35966 0.88057,-0.76894 1.67432,-1.31465 3.12539,-1.31465 0.74414,0 1.21543,0.43408 0.48369,0.43408 0.48369,1.11621 0,1.67432 -1.0666,3.44785 -0.29766,0.5209 -0.69453,1.0294 -0.38447,0.5085 -1.11621,1.31465 0.44648,0.75654 1.01699,1.52549 0.5085,0.66972 1.27744,1.33945 0.66973,0.5581 0.96739,1.0418 z" />
    <path
       inkscape:connector-curvature="0"
       id="path1054"
       style="font-style:normal;font-variant:normal;font-weight:normal;font-stretch:normal;font-size:25.39999962px;line-height:1.25;font-family:Forte;-inkscape-font-specification:'Forte, Normal';font-variant-ligatures:normal;font-variant-caps:normal;font-variant-numeric:normal;font-feature-settings:normal;text-align:start;letter-spacing:16.93333244px;word-spacing:0px;writing-mode:lr-tb;text-anchor:start;fill:#ffffff;fill-opacity:1;stroke:none;stroke-width:0.26458332"
       d="m 95.49702,271.14942 q -1.73633,2.23242 -2.6417,2.23242 -0.65733,0 -1.38907,-0.5209 -0.71933,-0.5085 -1.35185,-1.38906 -0.63252,-0.86817 -1.00459,-1.88516 -0.37207,-1.01699 -0.37207,-1.93476 0,-0.5209 0.17363,-0.69454 0.0744,-0.0744 0.33486,-0.24804 2.0836,-1.28985 2.0836,-2.44326 0,-0.60772 -0.5333,-0.60772 -0.57051,0 -1.47588,1.10381 -0.89297,1.09141 -1.62471,2.67891 -0.43408,1.00459 -0.74414,1.27744 -0.28525,0.24804 -0.88057,0.24804 -0.65732,0 -1.14101,-0.35966 -0.48369,-0.37207 -0.75654,-1.0418 -0.26045,-0.68213 -0.26045,-1.55029 0,-1.33946 0.33486,-2.92696 0.33486,-1.5875 0.93018,-3.1874 0.60771,-1.5999 1.43867,-3.12539 0.83095,-1.52549 1.73633,-2.69131 1.78593,-2.25723 3.48505,-2.25723 0.84336,0 1.50069,0.38448 0.66972,0.38447 1.02939,1.0914 0.35967,0.70694 0.35967,1.64952 0,1.15341 -0.57051,2.30683 -0.57051,1.14102 -1.48828,1.87276 -0.90537,0.71933 -1.82314,0.71933 -0.43409,0 -0.43409,-0.31006 0,-0.12402 0.22325,-0.58291 1.0914,-2.15801 1.0914,-4.89892 0,-0.70694 -0.17363,-0.70694 -0.12402,0 -0.38447,0.35967 -0.24805,0.35967 -0.48369,0.88057 -1.36426,3.06338 -1.97198,7.05693 -0.0372,0.21084 -0.0868,0.55811 -0.0372,0.34726 -0.0992,0.79375 l 0.0496,0.0496 q 0.50849,-0.71934 0.83095,-1.06661 0.33487,-0.35966 0.88057,-0.76894 1.67432,-1.31465 3.12539,-1.31465 0.74414,0 1.21543,0.43408 0.48369,0.43408 0.48369,1.11621 0,1.67432 -1.0666,3.44785 -0.29766,0.5209 -0.69453,1.0294 -0.38447,0.5085 -1.11621,1.31465 0.44648,0.75654 1.01699,1.52549 0.5085,0.66972 1.27744,1.33945 0.66973,0.5581 0.96739,1.0418 z" />
    <path
       inkscape:connector-curvature="0"
       id="path1001"
       style="font-style:normal;font-variant:normal;font-weight:normal;font-stretch:normal;font-size:25.39999962px;line-height:1.25;font-family:Forte;-inkscape-font-specification:'Forte, Normal';font-variant-ligatures:normal;font-variant-caps:normal;font-variant-numeric:normal;font-feature-settings:normal;text-align:start;letter-spacing:16.93333244px;word-spacing:0px;writing-mode:lr-tb;text-anchor:start;fill:none;fill-opacity:1;stroke:#000000;stroke-width:2.11666656;stroke-miterlimit:4;stroke-dasharray:none;stroke-opacity:1;filter:url(#filter995)"
       d="m 79.237539,262.92252 0.74414,-0.86816 q 1.128614,-1.25264 1.785941,-1.86035 0.66972,-0.62012 1.19062,-0.89297 0.5333,-0.27285 1.07901,-0.27285 0.88056,0 1.24023,0.47128 0.35967,0.47129 0.35967,1.63711 0,0.48369 -0.0992,1.42627 -0.14883,1.25264 -0.14883,2.35645 0,1.24023 0.12402,2.00918 0.0868,0.47129 0.26045,0.94258 0.12403,0.44648 0.12403,0.60771 0,0.19844 -0.14883,0.31006 -0.38447,0.33486 -1.01699,0.58291 -0.63252,0.24805 -1.0666,0.24805 -0.70694,0 -1.28985,-0.48369 -0.57051,-0.4837 -0.89297,-1.33946 -0.310056,-0.85576 -0.310056,-1.93476 0,-0.71934 0.148828,-1.69912 l -0.04961,-0.0496 q -0.533301,0.59531 -0.868164,0.94257 -0.322461,0.34727 -0.607715,0.65733 -1.389062,1.5875 -2.356445,2.86494 -0.37207,0.49609 -0.682129,0.86816 -0.458887,0.45889 -1.041797,0.45889 -0.79375,0 -1.289844,-0.59531 -0.496093,-0.59531 -0.496093,-1.53789 0,-0.58291 0.136425,-1.42627 0.136426,-0.84336 0.359668,-1.79834 0.235645,-0.96738 0.545704,-1.98438 0.32246,-1.01699 0.694531,-1.93476 0.570508,-1.52549 1.389062,-2.38125 0.558106,-0.55811 1.351856,-0.55811 1.289843,0 1.289843,1.67432 0,1.22783 -0.508496,3.50986 z" />
    <path
       inkscape:connector-curvature="0"
       id="path1018"
       style="font-style:normal;font-variant:normal;font-weight:normal;font-stretch:normal;font-size:25.39999962px;line-height:1.25;font-family:Forte;-inkscape-font-specification:'Forte, Normal';font-variant-ligatures:normal;font-variant-caps:normal;font-variant-numeric:normal;font-feature-settings:normal;text-align:start;letter-spacing:16.93333244px;word-spacing:0px;writing-mode:lr-tb;text-anchor:start;fill:none;fill-opacity:1;stroke:#ffffff;stroke-width:2.11666656;stroke-miterlimit:4;stroke-dasharray:none;stroke-opacity:1"
       d="m 78.708372,262.39336 0.74414,-0.86816 q 1.128613,-1.25264 1.785938,-1.86035 0.66973,-0.62012 1.19062,-0.89297 0.53331,-0.27285 1.07901,-0.27285 0.88056,0 1.24023,0.47128 0.35967,0.47129 0.35967,1.63711 0,0.4837 -0.0992,1.42627 -0.14883,1.25264 -0.14883,2.35645 0,1.24023 0.12403,2.00918 0.0868,0.47129 0.26045,0.94258 0.12402,0.44648 0.12402,0.60771 0,0.19844 -0.14883,0.31006 -0.38447,0.33486 -1.01699,0.58291 -0.63252,0.24805 -1.0666,0.24805 -0.70694,0 -1.28985,-0.48369 -0.570503,-0.4837 -0.892964,-1.33946 -0.310059,-0.85576 -0.310059,-1.93476 0,-0.71934 0.148828,-1.69912 l -0.04961,-0.0496 q -0.533301,0.59531 -0.868164,0.94257 -0.322461,0.34727 -0.607715,0.65733 -1.389062,1.5875 -2.356445,2.86494 -0.372071,0.49609 -0.682129,0.86816 -0.458887,0.45889 -1.041797,0.45889 -0.79375,0 -1.289844,-0.59531 -0.496094,-0.59531 -0.496094,-1.53789 0,-0.58291 0.136426,-1.42627 0.136426,-0.84336 0.359668,-1.79834 0.235645,-0.96738 0.545703,-1.98438 0.322461,-1.01699 0.694532,-1.93476 0.570507,-1.52549 1.389062,-2.38125 0.558106,-0.55811 1.351856,-0.55811 1.289843,0 1.289843,1.67432 0,1.22783 -0.508496,3.50986 z" />
    <path
       inkscape:connector-curvature="0"
       id="path1035"
       style="font-style:normal;font-variant:normal;font-weight:normal;font-stretch:normal;font-size:25.39999962px;line-height:1.25;font-family:Forte;-inkscape-font-specification:'Forte, Normal';font-variant-ligatures:normal;font-variant-caps:normal;font-variant-numeric:normal;font-feature-settings:normal;text-align:start;letter-spacing:16.93333244px;word-spacing:0px;writing-mode:lr-tb;text-anchor:start;fill:none;fill-opacity:1;stroke:#2c89a0;stroke-width:1.05833328;stroke-miterlimit:4;stroke-dasharray:none"
       d="m 78.708372,262.39336 0.74414,-0.86816 q 1.128613,-1.25264 1.785938,-1.86035 0.66973,-0.62012 1.19062,-0.89297 0.53331,-0.27285 1.07901,-0.27285 0.88056,0 1.24023,0.47128 0.35967,0.47129 0.35967,1.63711 0,0.4837 -0.0992,1.42627 -0.14883,1.25264 -0.14883,2.35645 0,1.24023 0.12403,2.00918 0.0868,0.47129 0.26045,0.94258 0.12402,0.44648 0.12402,0.60771 0,0.19844 -0.14883,0.31006 -0.38447,0.33486 -1.01699,0.58291 -0.63252,0.24805 -1.0666,0.24805 -0.70694,0 -1.28985,-0.48369 -0.570503,-0.4837 -0.892964,-1.33946 -0.310059,-0.85576 -0.310059,-1.93476 0,-0.71934 0.148828,-1.69912 l -0.04961,-0.0496 q -0.533301,0.59531 -0.868164,0.94257 -0.322461,0.34727 -0.607715,0.65733 -1.389062,1.5875 -2.356445,2.86494 -0.372071,0.49609 -0.682129,0.86816 -0.458887,0.45889 -1.041797,0.45889 -0.79375,0 -1.289844,-0.59531 -0.496094,-0.59531 -0.496094,-1.53789 0,-0.58291 0.136426,-1.42627 0.136426,-0.84336 0.359668,-1.79834 0.235645,-0.96738 0.545703,-1.98438 0.322461,-1.01699 0.694532,-1.93476 0.570507,-1.52549 1.389062,-2.38125 0.558106,-0.55811 1.351856,-0.55811 1.289843,0 1.289843,1.67432 0,1.22783 -0.508496,3.50986 z" />
    <path
       inkscape:connector-curvature="0"
       id="path1052"
       style="font-style:normal;font-variant:normal;font-weight:normal;font-stretch:normal;font-size:25.39999962px;line-height:1.25;font-family:Forte;-inkscape-font-specification:'Forte, Normal';font-variant-ligatures:normal;font-variant-caps:normal;font-variant-numeric:normal;font-feature-settings:normal;text-align:start;letter-spacing:16.93333244px;word-spacing:0px;writing-mode:lr-tb;text-anchor:start;fill:#ffffff;fill-opacity:1;stroke:none;stroke-width:0.26458332"
       d="m 78.708372,262.39336 0.74414,-0.86816 q 1.128613,-1.25264 1.785938,-1.86035 0.66973,-0.62012 1.19062,-0.89297 0.53331,-0.27285 1.07901,-0.27285 0.88056,0 1.24023,0.47128 0.35967,0.47129 0.35967,1.63711 0,0.4837 -0.0992,1.42627 -0.14883,1.25264 -0.14883,2.35645 0,1.24023 0.12403,2.00918 0.0868,0.47129 0.26045,0.94258 0.12402,0.44648 0.12402,0.60771 0,0.19844 -0.14883,0.31006 -0.38447,0.33486 -1.01699,0.58291 -0.63252,0.24805 -1.0666,0.24805 -0.70694,0 -1.28985,-0.48369 -0.570503,-0.4837 -0.892964,-1.33946 -0.310059,-0.85576 -0.310059,-1.93476 0,-0.71934 0.148828,-1.69912 l -0.04961,-0.0496 q -0.533301,0.59531 -0.868164,0.94257 -0.322461,0.34727 -0.607715,0.65733 -1.389062,1.5875 -2.356445,2.86494 -0.372071,0.49609 -0.682129,0.86816 -0.458887,0.45889 -1.041797,0.45889 -0.79375,0 -1.289844,-0.59531 -0.496094,-0.59531 -0.496094,-1.53789 0,-0.58291 0.136426,-1.42627 0.136426,-0.84336 0.359668,-1.79834 0.235645,-0.96738 0.545703,-1.98438 0.322461,-1.01699 0.694532,-1.93476 0.570507,-1.52549 1.389062,-2.38125 0.558106,-0.55811 1.351856,-0.55811 1.289843,0 1.289843,1.67432 0,1.22783 -0.508496,3.50986 z" />
    <path
       inkscape:connector-curvature="0"
       id="path999"
       style="font-style:normal;font-variant:normal;font-weight:normal;font-stretch:normal;font-size:25.39999962px;line-height:1.25;font-family:Forte;-inkscape-font-specification:'Forte, Normal';font-variant-ligatures:normal;font-variant-caps:normal;font-variant-numeric:normal;font-feature-settings:normal;text-align:start;letter-spacing:16.93333244px;word-spacing:0px;writing-mode:lr-tb;text-anchor:start;fill:none;fill-opacity:1;stroke:#000000;stroke-width:2.11666656;stroke-miterlimit:4;stroke-dasharray:none;stroke-opacity:1;filter:url(#filter995)"
       d="m 72.407986,254.76178 h -0.09922 q -1.041797,0 -3.460254,0.79375 -1.785937,0.58291 -2.356445,0.58291 -0.396875,0 -0.682129,-0.24805 -0.285254,-0.26045 -0.285254,-0.62012 0,-0.59531 0.669727,-1.46347 0.682129,-0.88057 1.364258,-1.15342 1.004589,-0.40928 4.216796,-0.40928 1.277442,0 2.567286,0.12403 1.289843,0.12402 2.17041,0.34726 0.892968,0.21084 1.128613,0.44649 0.124023,0.12402 0.124023,0.5333 0,0.38447 -0.210839,1.36426 -0.198438,0.96738 -0.471289,1.86035 -1.748731,5.46943 -4.142383,9.83506 -0.595313,1.0914 -1.153418,1.68671 -0.545703,0.59532 -1.21543,0.85577 -0.657324,0.24804 -1.575098,0.24804 -1.314648,0 -2.443261,-0.49609 -1.128613,-0.5085 -1.785938,-1.36426 -0.644922,-0.86816 -0.644922,-1.89756 0,-0.71933 0.297657,-1.53789 0.310058,-0.83096 0.694531,-1.27744 0.186035,-0.23564 0.434082,-0.23564 0.409277,0 0.768945,0.38447 0.359668,0.38447 0.781348,1.31465 0.607715,1.40146 1.389062,2.34404 0.08682,0.11162 0.384473,0.43408 0.58291,-1.30224 0.892969,-2.1332 0.322461,-0.84336 0.731738,-2.24483 0.285254,-0.89296 0.967383,-3.44785 0.533301,-2.1456 0.942578,-4.62607 z" />
    <path
       inkscape:connector-curvature="0"
       id="path1016"
       style="font-style:normal;font-variant:normal;font-weight:normal;font-stretch:normal;font-size:25.39999962px;line-height:1.25;font-family:Forte;-inkscape-font-specification:'Forte, Normal';font-variant-ligatures:normal;font-variant-caps:normal;font-variant-numeric:normal;font-feature-settings:normal;text-align:start;letter-spacing:16.93333244px;word-spacing:0px;writing-mode:lr-tb;text-anchor:start;fill:none;fill-opacity:1;stroke:#ffffff;stroke-width:2.11666656;stroke-miterlimit:4;stroke-dasharray:none;stroke-opacity:1"
       d="m 71.878819,254.23262 h -0.09922 q -1.041797,0 -3.460254,0.79375 -1.785937,0.58291 -2.356445,0.58291 -0.396875,0 -0.682129,-0.24805 -0.285254,-0.26045 -0.285254,-0.62011 0,-0.59532 0.669727,-1.46348 0.682129,-0.88057 1.364257,-1.15342 1.00459,-0.40928 4.216797,-0.40928 1.277442,0 2.567285,0.12403 1.289844,0.12402 2.170411,0.34726 0.892968,0.21084 1.128613,0.44649 0.124023,0.12402 0.124023,0.5333 0,0.38447 -0.21084,1.36426 -0.198437,0.96738 -0.471289,1.86035 -1.74873,5.46943 -4.142382,9.83506 -0.595313,1.0914 -1.153418,1.68671 -0.545703,0.59532 -1.21543,0.85577 -0.657324,0.24804 -1.575098,0.24804 -1.314648,0 -2.443261,-0.49609 -1.128614,-0.5085 -1.785938,-1.36426 -0.644922,-0.86816 -0.644922,-1.89756 0,-0.71933 0.297657,-1.53789 0.310058,-0.83095 0.694531,-1.27744 0.186035,-0.23564 0.434082,-0.23564 0.409277,0 0.768945,0.38447 0.359668,0.38447 0.781348,1.31465 0.607715,1.40146 1.389062,2.34404 0.08682,0.11162 0.384473,0.43408 0.58291,-1.30224 0.892969,-2.1332 0.322461,-0.84336 0.731738,-2.24483 0.285254,-0.89296 0.967383,-3.44785 0.5333,-2.1456 0.942578,-4.62607 z" />
    <path
       inkscape:connector-curvature="0"
       id="path1033"
       style="font-style:normal;font-variant:normal;font-weight:normal;font-stretch:normal;font-size:25.39999962px;line-height:1.25;font-family:Forte;-inkscape-font-specification:'Forte, Normal';font-variant-ligatures:normal;font-variant-caps:normal;font-variant-numeric:normal;font-feature-settings:normal;text-align:start;letter-spacing:16.93333244px;word-spacing:0px;writing-mode:lr-tb;text-anchor:start;fill:none;fill-opacity:1;stroke:#2c89a0;stroke-width:1.05833328;stroke-miterlimit:4;stroke-dasharray:none"
       d="m 71.878819,254.23262 h -0.09922 q -1.041797,0 -3.460254,0.79375 -1.785937,0.58291 -2.356445,0.58291 -0.396875,0 -0.682129,-0.24805 -0.285254,-0.26045 -0.285254,-0.62011 0,-0.59532 0.669727,-1.46348 0.682129,-0.88057 1.364257,-1.15342 1.00459,-0.40928 4.216797,-0.40928 1.277442,0 2.567285,0.12403 1.289844,0.12402 2.170411,0.34726 0.892968,0.21084 1.128613,0.44649 0.124023,0.12402 0.124023,0.5333 0,0.38447 -0.21084,1.36426 -0.198437,0.96738 -0.471289,1.86035 -1.74873,5.46943 -4.142382,9.83506 -0.595313,1.0914 -1.153418,1.68671 -0.545703,0.59532 -1.21543,0.85577 -0.657324,0.24804 -1.575098,0.24804 -1.314648,0 -2.443261,-0.49609 -1.128614,-0.5085 -1.785938,-1.36426 -0.644922,-0.86816 -0.644922,-1.89756 0,-0.71933 0.297657,-1.53789 0.310058,-0.83095 0.694531,-1.27744 0.186035,-0.23564 0.434082,-0.23564 0.409277,0 0.768945,0.38447 0.359668,0.38447 0.781348,1.31465 0.607715,1.40146 1.389062,2.34404 0.08682,0.11162 0.384473,0.43408 0.58291,-1.30224 0.892969,-2.1332 0.322461,-0.84336 0.731738,-2.24483 0.285254,-0.89296 0.967383,-3.44785 0.5333,-2.1456 0.942578,-4.62607 z" />
    <path
       inkscape:connector-curvature="0"
       id="path1050"
       style="font-style:normal;font-variant:normal;font-weight:normal;font-stretch:normal;font-size:25.39999962px;line-height:1.25;font-family:Forte;-inkscape-font-specification:'Forte, Normal';font-variant-ligatures:normal;font-variant-caps:normal;font-variant-numeric:normal;font-feature-settings:normal;text-align:start;letter-spacing:16.93333244px;word-spacing:0px;writing-mode:lr-tb;text-anchor:start;fill:#ffffff;fill-opacity:1;stroke:none;stroke-width:0.26458332"
       d="m 71.878819,254.23262 h -0.09922 q -1.041797,0 -3.460254,0.79375 -1.785937,0.58291 -2.356445,0.58291 -0.396875,0 -0.682129,-0.24805 -0.285254,-0.26045 -0.285254,-0.62011 0,-0.59532 0.669727,-1.46348 0.682129,-0.88057 1.364257,-1.15342 1.00459,-0.40928 4.216797,-0.40928 1.277442,0 2.567285,0.12403 1.289844,0.12402 2.170411,0.34726 0.892968,0.21084 1.128613,0.44649 0.124023,0.12402 0.124023,0.5333 0,0.38447 -0.21084,1.36426 -0.198437,0.96738 -0.471289,1.86035 -1.74873,5.46943 -4.142382,9.83506 -0.595313,1.0914 -1.153418,1.68671 -0.545703,0.59532 -1.21543,0.85577 -0.657324,0.24804 -1.575098,0.24804 -1.314648,0 -2.443261,-0.49609 -1.128614,-0.5085 -1.785938,-1.36426 -0.644922,-0.86816 -0.644922,-1.89756 0,-0.71933 0.297657,-1.53789 0.310058,-0.83095 0.694531,-1.27744 0.186035,-0.23564 0.434082,-0.23564 0.409277,0 0.768945,0.38447 0.359668,0.38447 0.781348,1.31465 0.607715,1.40146 1.389062,2.34404 0.08682,0.11162 0.384473,0.43408 0.58291,-1.30224 0.892969,-2.1332 0.322461,-0.84336 0.731738,-2.24483 0.285254,-0.89296 0.967383,-3.44785 0.5333,-2.1456 0.942578,-4.62607 z" />
    <text
       xml:space="preserve"
       style="font-style:normal;font-weight:normal;font-size:10.58333302px;line-height:1.25;font-family:sans-serif;letter-spacing:0px;word-spacing:0px;fill:#000000;fill-opacity:1;stroke:none;stroke-width:0.26458332"
       x="119.19479"
       y="245.737"
       id="text1454"><tspan
         sodipodi:role="line"
         id="tspan1452"
         x="119.19479"
         y="255.3925"
         style="stroke-width:0.26458332"></tspan></text>
  </g>
</svg>
