<?xml version="1.0" encoding="UTF-8" standalone="no"?>
<!-- Created with Inkscape (http://www.inkscape.org/) -->

<svg
   xmlns:dc="http://purl.org/dc/elements/1.1/"
   xmlns:cc="http://creativecommons.org/ns#"
   xmlns:rdf="http://www.w3.org/1999/02/22-rdf-syntax-ns#"
   xmlns:svg="http://www.w3.org/2000/svg"
   xmlns="http://www.w3.org/2000/svg"
   xmlns:sodipodi="http://sodipodi.sourceforge.net/DTD/sodipodi-0.dtd"
   xmlns:inkscape="http://www.inkscape.org/namespaces/inkscape"
   width="256mm"
   height="128mm"
   viewBox="0 0 256 128"
   version="1.1"
   id="svg8"
   inkscape:version="0.92.4 (5da689c313, 2019-01-14)"
   sodipodi:docname="008_heartbeat_design.svg">
  <defs
     id="defs2" />
  <sodipodi:namedview
     id="base"
     pagecolor="#ffffff"
     bordercolor="#666666"
     borderopacity="1.0"
     inkscape:pageopacity="0.0"
     inkscape:pageshadow="2"
     inkscape:zoom="1.4"
     inkscape:cx="491.86446"
     inkscape:cy="228.56204"
     inkscape:document-units="mm"
     inkscape:current-layer="layer1"
     showgrid="false"
     inkscape:pagecheckerboard="true"
     inkscape:window-width="1920"
     inkscape:window-height="1017"
     inkscape:window-x="1912"
     inkscape:window-y="-8"
     inkscape:window-maximized="1" />
  <metadata
     id="metadata5">
    <rdf:RDF>
      <cc:Work
         rdf:about="">
        <dc:format>image/svg+xml</dc:format>
        <dc:type
           rdf:resource="http://purl.org/dc/dcmitype/StillImage" />
        <dc:title></dc:title>
      </cc:Work>
    </rdf:RDF>
  </metadata>
  <g
     inkscape:label="Layer 1"
     inkscape:groupmode="layer"
     id="layer1"
     transform="translate(0,-169)">
    <g
       id="g896"
       transform="translate(9.6328115)"
       style="fill:#ff1212;fill-opacity:1">
      <path
         inkscape:connector-curvature="0"
         id="path848"
         d="m 125.16016,196.09961 c -9e-4,10e-5 -0.095,0.0289 -0.0957,0.0293 -6.6e-4,3.4e-4 -0.0953,0.0834 -0.0957,0.084 -4.2e-4,6e-4 -0.0428,0.0988 -0.043,0.0996 -1.8e-4,8.5e-4 -0.007,0.0546 -0.006,0.0742 0.001,0.0196 0.005,0.034 0.008,0.0469 0.0239,0.10278 0.0456,0.11212 0.0723,0.15039 -0.01,-0.0141 0.0191,0.045 0.0273,0.14258 0.008,0.0975 0.006,0.23112 -0.006,0.38477 -0.0237,0.30729 -0.084,0.69184 -0.15625,1.0625 -0.0876,0.44976 -0.13416,0.5982 -0.20117,0.86719 -0.1811,-0.26606 -0.31266,-0.47727 -0.70898,-0.99414 -0.29518,-0.38497 -0.62209,-0.78567 -0.94141,-1.125 -0.31931,-0.33934 -0.61959,-0.61847 -0.92578,-0.76563 -0.14246,-0.0685 -0.34043,-0.0319 -0.45312,0.0527 -0.1127,0.0847 -0.18314,0.19254 -0.25,0.32032 -0.13373,0.25556 -0.24328,0.6061 -0.35157,1.04101 -0.21657,0.86984 -0.4105,2.07019 -0.58398,3.3418 -0.34696,2.54321 -0.61089,5.38218 -0.7461,6.25586 -0.27146,1.75427 -1.26352,4.51261 -1.26953,4.5293 -0.001,0.003 -0.20763,0.4713 -1.35742,1.92773 -1.15322,1.46078 -3.23769,3.88 -6.94531,7.69336 -3.72555,3.83181 -5.52614,6.52235 -6.39844,8.27344 -0.43615,0.87554 -0.64017,1.51744 -0.73437,1.94726 -0.0736,0.33573 -0.06,0.44693 -0.0586,0.5293 -0.10544,0.10087 -4.112039,3.94246 -7.107419,9.30664 a 0.26492172,0.26492172 0 1 0 0.462891,0.25781 c 2.988162,-5.35125 7.074218,-9.25 7.074218,-9.25 a 0.26460981,0.26460981 0 0 0 0.0801,-0.21679 c 0,0 -0.0172,-0.13242 0.0664,-0.51368 0.0836,-0.38125 0.27186,-0.982 0.69141,-1.82422 0.8391,-1.68443 2.60611,-4.33654 6.30469,-8.14062 3.71652,-3.82252 5.81127,-6.25531 6.98047,-7.73633 1.16919,-1.48102 1.42773,-2.04101 1.42773,-2.04101 a 0.26460981,0.26460981 0 0 0 0.008,-0.0195 c 0,0 1.00982,-2.77292 1.29883,-4.64062 0.14546,-0.93995 0.40144,-3.74127 0.7461,-6.26758 0.17232,-1.26315 0.3674,-2.45453 0.57422,-3.28515 0.1034,-0.41531 0.21242,-0.74183 0.30664,-0.92188 0.0298,-0.057 0.0436,-0.0687 0.0625,-0.0918 0.18003,0.10117 0.43562,0.30692 0.71289,0.60157 0.29993,0.31874 0.61785,0.70787 0.90625,1.08398 0.57678,0.75222 1.03515,1.44922 1.03515,1.44922 a 0.26460981,0.26460981 0 0 0 0.47657,-0.0781 c 0,0 0.18902,-0.70089 0.33789,-1.46484 0.0744,-0.38197 0.13762,-0.78001 0.16406,-1.12305 0.002,-0.027 -0.002,-0.0479 0,-0.0742 0.0665,0.0732 0.11256,0.10793 0.18164,0.19141 0.21268,0.25702 0.42648,0.55474 0.56445,0.82813 0.13797,0.27338 0.18342,0.51495 0.15039,0.63476 -0.0866,0.31417 -0.068,0.73876 -0.008,1.26172 0.0602,0.52296 0.17324,1.12708 0.32617,1.70703 0.15293,0.57995 0.34431,1.13411 0.56836,1.57031 0.11202,0.21811 0.23227,0.40832 0.37109,0.5586 0.13883,0.15027 0.30437,0.26985 0.51172,0.29687 0.308,0.0401 0.82002,0.007 1.50586,-0.0332 0.68585,-0.0398 1.51776,-0.0927 2.35352,-0.11523 0.83575,-0.0225 1.67555,-0.0133 2.36523,0.0664 0.68969,0.0797 1.22592,0.25203 1.42969,0.44336 0.64223,0.60299 1.29621,0.70387 2.13477,1.09375 0.83855,0.38988 1.92287,1.07424 3.51562,2.84961 a 0.26460981,0.26460981 0 0 0 0.14453,0.082 c 0,0 0.9717,0.19372 2.00196,0.44922 0.51512,0.12775 1.0461,0.27161 1.4707,0.41211 0.2123,0.0702 0.39817,0.13932 0.53906,0.20312 0.12696,0.0575 0.19985,0.11135 0.22656,0.13282 0.0237,0.0442 0.39011,0.72019 0.62891,1.44531 0.12324,0.37424 0.20184,0.7512 0.1875,0.99805 -0.007,0.12342 -0.0359,0.20821 -0.0684,0.2539 -0.0324,0.0457 -0.0648,0.0706 -0.16016,0.0859 a 0.26460981,0.26460981 0 0 0 -0.20703,0.34766 c 0,0 0.28616,0.81374 0.11524,2.02929 -0.17027,1.21085 -0.79748,2.79909 -2.67383,4.33008 -0.18957,0.0309 -4.50719,0.77453 -6.39258,4.67383 0,0 -0.99364,0.89616 -2.03906,1.58398 -0.52271,0.34392 -1.06301,0.63238 -1.45703,0.73047 -0.19701,0.049 -0.34935,0.0464 -0.43946,0.0156 -0.0901,-0.0308 -0.14146,-0.0701 -0.18945,-0.21094 l -0.004,0.002 c -0.006,-0.006 -0.0664,-0.11132 -0.0664,-0.11132 a 0.26460981,0.26460981 0 0 0 -0.42969,0.27929 c 0.0158,0.0464 0.0698,0.0536 0.0918,0.0957 l -0.0215,0.0137 c 0,0 0.58808,0.5607 0.79493,1.32226 0.10342,0.38079 0.11602,0.79994 -0.0781,1.25 -0.19415,0.45007 -0.60363,0.94248 -1.38867,1.43164 a 0.26460981,0.26460981 0 0 0 -0.0273,0.42774 c 0,0 0.42135,0.35091 0.76172,0.81836 0.17019,0.23372 0.31628,0.49392 0.38086,0.73437 0.0646,0.24046 0.0565,0.44619 -0.0605,0.64453 a 0.26460981,0.26460981 0 0 0 0.41601,0.32032 c 0,0 5.9403,-6.10271 12.72461,-8.36133 a 0.26460981,0.26460981 0 0 0 0.041,-0.0176 c 0,0 1.9334,-1.0237 4.5039,-1.25977 2.57051,-0.23606 5.73575,0.29981 8.28516,3.45313 a 0.26460981,0.26460981 0 0 0 0.008,0.008 c 0,0 0.35774,0.4086 0.47852,1.11328 0.12019,0.70124 0.007,1.6817 -1.03711,2.86133 -0.008,0.007 -0.10797,0.0984 -0.35938,0.20313 -0.26099,0.10876 -0.65216,0.21177 -1.17578,0.17578 a 0.26460981,0.26460981 0 0 0 -0.11133,0.51172 c 0,0 0.0182,0.005 0.0488,0.0371 0.0306,0.0322 0.0623,0.0681 0.0527,0.18554 -0.0188,0.23102 -0.34743,0.85481 -1.60547,1.86914 -0.0448,0.0146 -0.62385,0.20644 -1.45313,0.3086 -0.86049,0.106 -1.91794,0.0906 -2.69922,-0.32227 l 0.041,0.0254 c 0,0 -0.56365,-0.43244 -1.57617,-0.5625 -1.01253,-0.13006 -2.49477,0.0264 -4.39063,1.10742 a 0.26460981,0.26460981 0 0 0 -0.0859,0.0781 c 0,0 -2.30042,3.29089 -4.80859,6.72266 a 0.26486683,0.26486683 0 1 0 0.42774,0.3125 c 2.48973,-3.40654 4.7307,-6.61162 4.77148,-6.66993 1.78801,-1.00798 3.13198,-1.14135 4.01953,-1.02734 0.89568,0.11505 1.31445,0.45508 1.31445,0.45508 a 0.26460981,0.26460981 0 0 0 0.0391,0.0254 c 0.94472,0.49928 2.0966,0.49359 3.01172,0.38086 0.91511,-0.11274 1.61132,-0.34375 1.61132,-0.34375 a 0.26460981,0.26460981 0 0 0 0.0801,-0.0449 c 1.35743,-1.08119 1.78764,-1.74873 1.83008,-2.27149 0.0114,-0.14052 -0.0624,-0.21333 -0.10547,-0.31836 0.35866,-0.032 0.74416,-0.0537 0.9668,-0.14648 0.3261,-0.1359 0.51758,-0.29883 0.51758,-0.29883 a 0.26460981,0.26460981 0 0 0 0.0234,-0.0234 c 1.14532,-1.28532 1.32106,-2.47271 1.17578,-3.32031 -0.14485,-0.84514 -0.59891,-1.36414 -0.60156,-1.36719 -2.66621,-3.29436 -6.05811,-3.88907 -8.74218,-3.64258 -2.64434,0.24285 -4.60172,1.26897 -4.66211,1.30079 -0.002,6.5e-4 -0.004,10e-4 -0.006,0.002 -6.51058,2.16968 -11.72302,7.3412 -12.42969,8.05273 -0.008,-0.0984 0.0564,-0.19943 0.0312,-0.29297 -0.0901,-0.33558 -0.26877,-0.6416 -0.46289,-0.9082 -0.30297,-0.41608 -0.52709,-0.59264 -0.66602,-0.71484 0.65461,-0.46715 1.16624,-0.95035 1.37891,-1.44336 0.24594,-0.57013 0.23114,-1.12778 0.10351,-1.59766 -0.12208,-0.44947 -0.25501,-0.47898 -0.45312,-0.75195 0.11199,-0.006 0.21874,0.0267 0.33398,-0.002 0.51086,-0.12717 1.0727,-0.4432 1.61914,-0.80273 1.09288,-0.71905 2.10157,-1.63281 2.10157,-1.63281 a 0.26460981,0.26460981 0 0 0 0.0625,-0.084 c 1.76548,-3.79653 6.16797,-4.49804 6.16797,-4.49804 a 0.26460981,0.26460981 0 0 0 0.12695,-0.0547 c 1.98943,-1.61437 2.69171,-3.35432 2.87891,-4.68555 0.16921,-1.20334 -0.0753,-1.89905 -0.125,-2.05859 0.10098,-0.054 0.22218,-0.0831 0.28515,-0.17188 0.11149,-0.15713 0.15318,-0.34192 0.16406,-0.52929 0.0218,-0.37475 -0.0794,-0.78995 -0.21289,-1.19532 -0.26699,-0.81072 -0.68359,-1.57812 -0.68359,-1.57812 a 0.26460981,0.26460981 0 0 0 -0.0449,-0.0586 c -0.11088,-0.11343 -0.24442,-0.18188 -0.41211,-0.25782 -0.16769,-0.0759 -0.36637,-0.14871 -0.58985,-0.22265 -0.44694,-0.14789 -0.98715,-0.29422 -1.50976,-0.42383 -1.0049,-0.24921 -1.87585,-0.42129 -1.94727,-0.43555 -1.58701,-1.75167 -2.73676,-2.50185 -3.61914,-2.91211 -0.89679,-0.41695 -1.46629,-0.50061 -1.99609,-0.99804 -0.38224,-0.35889 -0.9969,-0.49921 -1.73047,-0.58399 -0.73357,-0.0848 -1.59086,-0.0912 -2.43945,-0.0684 -0.84859,0.0229 -1.68767,0.0756 -2.3711,0.11524 -0.68343,0.0397 -1.23619,0.0593 -1.40625,0.0371 -0.0317,-0.004 -0.10194,-0.036 -0.1914,-0.13282 -0.0895,-0.0968 -0.19128,-0.24907 -0.28907,-0.43945 -0.19557,-0.38076 -0.38098,-0.9118 -0.52734,-1.4668 -0.14635,-0.555 -0.25568,-1.13757 -0.3125,-1.63086 -0.0568,-0.49328 -0.0483,-0.91385 -0.008,-1.06054 0.094,-0.34105 -0.0215,-0.68484 -0.1875,-1.01367 -0.16596,-0.32884 -0.39942,-0.6504 -0.62891,-0.92774 -0.22948,-0.27733 -0.45323,-0.50701 -0.61133,-0.64844 -0.0395,-0.0353 -0.0759,-0.0643 -0.10937,-0.0898 -0.0335,-0.0256 -0.0528,-0.0476 -0.11914,-0.0742 -0.0166,-0.007 -0.0374,-0.013 -0.0723,-0.0176 -0.0174,-0.002 -0.0655,-0.002 -0.0664,-0.002 z"
         style="color:#000000;font-style:normal;font-variant:normal;font-weight:normal;font-stretch:normal;font-size:medium;line-height:normal;font-family:sans-serif;font-variant-ligatures:normal;font-variant-position:normal;font-variant-caps:normal;font-variant-numeric:normal;font-variant-alternates:normal;font-feature-settings:normal;text-indent:0;text-align:start;text-decoration:none;text-decoration-line:none;text-decoration-style:solid;text-decoration-color:#000000;letter-spacing:normal;word-spacing:normal;text-transform:none;writing-mode:lr-tb;direction:ltr;text-orientation:mixed;dominant-baseline:auto;baseline-shift:baseline;text-anchor:start;white-space:normal;shape-padding:0;clip-rule:nonzero;display:inline;overflow:visible;visibility:visible;opacity:1;isolation:auto;mix-blend-mode:normal;color-interpolation:sRGB;color-interpolation-filters:linearRGB;solid-color:#000000;solid-opacity:1;vector-effect:none;fill:#ff1212;fill-opacity:1;fill-rule:nonzero;stroke:none;stroke-width:0.5291667;stroke-linecap:round;stroke-linejoin:round;stroke-miterlimit:4;stroke-dasharray:none;stroke-dashoffset:0;stroke-opacity:1;color-rendering:auto;image-rendering:auto;shape-rendering:auto;text-rendering:auto;enable-background:accumulate" />
      <path
         inkscape:connector-curvature="0"
         id="path863"
         d="m 77.777344,222.71875 a 0.26460981,0.26460981 0 0 0 -0.259766,0.22461 l -2.847656,18.26758 h -4.914063 a 0.26460981,0.26460981 0 0 0 -0.240234,0.15234 l -0.828125,1.78906 -1.8125,-4.01757 a 0.26460981,0.26460981 0 0 0 -0.490234,0.0234 l -1.802735,5.22071 -1.15625,-2.97071 a 0.26460981,0.26460981 0 0 0 -0.246093,-0.16797 h -8.976563 a 0.26465,0.26465 0 1 0 0,0.5293 h 8.794922 l 1.351562,3.47461 a 0.26460981,0.26460981 0 0 0 0.496094,-0.01 l 1.822266,-5.27344 1.77539,3.93945 a 0.26460981,0.26460981 0 0 0 0.480469,0.002 l 1.001953,-2.16406 h 4.970703 a 0.26460981,0.26460981 0 0 0 0.261719,-0.22266 l 2.525391,-16.20312 2.005859,27.50391 a 0.26460981,0.26460981 0 0 0 0.525391,0.0117 l 1.933594,-15.76171 1.513671,7.18554 a 0.26460981,0.26460981 0 0 0 0.490235,0.0723 l 2.572265,-4.67188 2.056641,4.83789 a 0.26460981,0.26460981 0 0 0 0.486328,0 l 1.160156,-2.7207 h 5.636719 a 0.26465,0.26465 0 1 0 0,-0.5293 h -5.8125 a 0.26460981,0.26460981 0 0 0 -0.242187,0.16016 L 89.025391,243.71094 87,238.94336 a 0.26460981,0.26460981 0 0 0 -0.476562,-0.0234 l -2.490235,4.52539 -1.695312,-8.04297 a 0.26460981,0.26460981 0 0 0 -0.521485,0.0215 l -1.796875,14.64844 -1.976562,-27.10743 a 0.26460981,0.26460981 0 0 0 -0.265625,-0.24609 z"
         style="color:#000000;font-style:normal;font-variant:normal;font-weight:normal;font-stretch:normal;font-size:medium;line-height:normal;font-family:sans-serif;font-variant-ligatures:normal;font-variant-position:normal;font-variant-caps:normal;font-variant-numeric:normal;font-variant-alternates:normal;font-feature-settings:normal;text-indent:0;text-align:start;text-decoration:none;text-decoration-line:none;text-decoration-style:solid;text-decoration-color:#000000;letter-spacing:normal;word-spacing:normal;text-transform:none;writing-mode:lr-tb;direction:ltr;text-orientation:mixed;dominant-baseline:auto;baseline-shift:baseline;text-anchor:start;white-space:normal;shape-padding:0;clip-rule:nonzero;display:inline;overflow:visible;visibility:visible;opacity:1;isolation:auto;mix-blend-mode:normal;color-interpolation:sRGB;color-interpolation-filters:linearRGB;solid-color:#000000;solid-opacity:1;vector-effect:none;fill:#ff1212;fill-opacity:1;fill-rule:nonzero;stroke:none;stroke-width:0.5291667;stroke-linecap:round;stroke-linejoin:round;stroke-miterlimit:4;stroke-dasharray:none;stroke-dashoffset:0;stroke-opacity:1;color-rendering:auto;image-rendering:auto;shape-rendering:auto;text-rendering:auto;enable-background:accumulate" />
      <path
         inkscape:connector-curvature="0"
         id="path865"
         d="m 35.917969,222.71875 a 0.26460981,0.26460981 0 0 0 -0.261719,0.22461 l -2.845703,18.26758 h -4.916016 a 0.26460981,0.26460981 0 0 0 -0.240234,0.15234 l -0.828125,1.78906 -1.810547,-4.01757 a 0.26460981,0.26460981 0 0 0 -0.492187,0.0234 l -1.802735,5.22071 -1.154297,-2.97071 a 0.26460981,0.26460981 0 0 0 -0.248047,-0.16797 h -8.976562 a 0.26465,0.26465 0 1 0 0,0.5293 h 8.796875 l 1.349609,3.47461 a 0.26460981,0.26460981 0 0 0 0.498047,-0.01 l 1.820313,-5.2754 1.77539,3.94141 a 0.26460981,0.26460981 0 0 0 0.480469,0.002 l 1.001953,-2.16406 h 4.970703 a 0.26460981,0.26460981 0 0 0 0.261719,-0.22266 l 2.525391,-16.20312 2.005859,27.50391 a 0.26460981,0.26460981 0 0 0 0.525391,0.0117 l 1.933593,-15.76171 1.513672,7.18554 a 0.26460981,0.26460981 0 0 0 0.492188,0.0723 l 2.572265,-4.67188 2.054688,4.83789 a 0.26460981,0.26460981 0 0 0 0.486328,0 l 1.160156,-2.7207 h 5.636719 a 0.26465,0.26465 0 1 0 0,-0.5293 h -5.8125 a 0.26460981,0.26460981 0 0 0 -0.242187,0.16016 l -0.984376,2.31055 -2.02539,-4.76758 a 0.26460981,0.26460981 0 0 0 -0.47461,-0.0234 l -2.492187,4.52735 -1.695313,-8.04493 a 0.26460981,0.26460981 0 0 0 -0.521484,0.0215 l -1.796875,14.64844 -1.976562,-27.10743 a 0.26460981,0.26460981 0 0 0 -0.263672,-0.24609 z"
         style="color:#000000;font-style:normal;font-variant:normal;font-weight:normal;font-stretch:normal;font-size:medium;line-height:normal;font-family:sans-serif;font-variant-ligatures:normal;font-variant-position:normal;font-variant-caps:normal;font-variant-numeric:normal;font-variant-alternates:normal;font-feature-settings:normal;text-indent:0;text-align:start;text-decoration:none;text-decoration-line:none;text-decoration-style:solid;text-decoration-color:#000000;letter-spacing:normal;word-spacing:normal;text-transform:none;writing-mode:lr-tb;direction:ltr;text-orientation:mixed;dominant-baseline:auto;baseline-shift:baseline;text-anchor:start;white-space:normal;shape-padding:0;clip-rule:nonzero;display:inline;overflow:visible;visibility:visible;opacity:1;isolation:auto;mix-blend-mode:normal;color-interpolation:sRGB;color-interpolation-filters:linearRGB;solid-color:#000000;solid-opacity:1;vector-effect:none;fill:#ff1212;fill-opacity:1;fill-rule:nonzero;stroke:none;stroke-width:0.5291667;stroke-linecap:round;stroke-linejoin:round;stroke-miterlimit:4;stroke-dasharray:none;stroke-dashoffset:0;stroke-opacity:1;color-rendering:auto;image-rendering:auto;shape-rendering:auto;text-rendering:auto;enable-background:accumulate" />
      <path
         inkscape:connector-curvature="0"
         id="path867"
         d="m 206.08203,222.73047 a 0.26460981,0.26460981 0 0 0 -0.23437,0.22265 L 203,241.2207 h -4.91406 a 0.26460981,0.26460981 0 0 0 -0.24024,0.1543 l -0.83008,1.79102 -1.81054,-4.01954 a 0.26460981,0.26460981 0 0 0 -0.49024,0.0215 l -1.80468,5.22265 -1.1543,-2.9707 A 0.26460981,0.26460981 0 0 0 191.50977,241.25 h -8.97852 a 0.26465,0.26465 0 1 0 0,0.5293 h 8.79687 l 1.35157,3.47461 a 0.26460981,0.26460981 0 0 0 0.49609,-0.008 l 1.82227,-5.27343 1.77343,3.9375 a 0.26460981,0.26460981 0 0 0 0.48243,0.002 l 1,-2.16211 h 4.97265 a 0.26460981,0.26460981 0 0 0 0.26172,-0.22461 l 2.52344,-16.19922 2.00586,27.5 a 0.26460981,0.26460981 0 0 0 0.52734,0.0137 l 1.93164,-15.76172 1.51563,7.1836 a 0.26460981,0.26460981 0 0 0 0.49023,0.0742 l 2.57227,-4.67383 2.05469,4.83789 a 0.26460981,0.26460981 0 0 0 0.48632,0 l 1.16016,-2.7207 h 5.63672 a 0.26465,0.26465 0 1 0 0,-0.5293 h -5.81055 a 0.26460981,0.26460981 0 0 0 -0.24414,0.16211 l -0.98437,2.30664 -2.0254,-4.76367 a 0.26460981,0.26460981 0 0 0 -0.4746,-0.0254 l -2.49024,4.52734 -1.69726,-8.04492 a 0.26460981,0.26460981 0 0 0 -0.52149,0.0234 l -1.79687,14.65625 -1.97461,-27.11719 a 0.26460981,0.26460981 0 0 0 -0.29102,-0.24414 z"
         style="color:#000000;font-style:normal;font-variant:normal;font-weight:normal;font-stretch:normal;font-size:medium;line-height:normal;font-family:sans-serif;font-variant-ligatures:normal;font-variant-position:normal;font-variant-caps:normal;font-variant-numeric:normal;font-variant-alternates:normal;font-feature-settings:normal;text-indent:0;text-align:start;text-decoration:none;text-decoration-line:none;text-decoration-style:solid;text-decoration-color:#000000;letter-spacing:normal;word-spacing:normal;text-transform:none;writing-mode:lr-tb;direction:ltr;text-orientation:mixed;dominant-baseline:auto;baseline-shift:baseline;text-anchor:start;white-space:normal;shape-padding:0;clip-rule:nonzero;display:inline;overflow:visible;visibility:visible;opacity:1;isolation:auto;mix-blend-mode:normal;color-interpolation:sRGB;color-interpolation-filters:linearRGB;solid-color:#000000;solid-opacity:1;vector-effect:none;fill:#ff1212;fill-opacity:1;fill-rule:nonzero;stroke:none;stroke-width:0.5291667;stroke-linecap:round;stroke-linejoin:round;stroke-miterlimit:4;stroke-dasharray:none;stroke-dashoffset:0;stroke-opacity:1;color-rendering:auto;image-rendering:auto;shape-rendering:auto;text-rendering:auto;enable-background:accumulate" />
      <path
         inkscape:connector-curvature="0"
         id="path869"
         d="m 164.2207,222.73047 a 0.26460981,0.26460981 0 0 0 -0.23437,0.22265 l -2.84766,18.26758 h -4.91406 a 0.26460981,0.26460981 0 0 0 -0.24023,0.1543 l -0.82813,1.78906 -1.8125,-4.01758 a 0.26460981,0.26460981 0 0 0 -0.49023,0.0215 l -1.80469,5.22265 -1.1543,-2.9707 A 0.26460981,0.26460981 0 0 0 149.64844,241.25 h -8.97656 a 0.26465,0.26465 0 1 0 0,0.5293 h 8.79492 l 1.35156,3.47461 a 0.26460981,0.26460981 0 0 0 0.49609,-0.008 l 1.82227,-5.27343 1.77539,3.9375 a 0.26460981,0.26460981 0 0 0 0.48047,0.002 l 1,-2.16211 h 4.97265 a 0.26460981,0.26460981 0 0 0 0.26172,-0.22461 l 2.52539,-16.20117 2.00391,27.50195 a 0.26460981,0.26460981 0 0 0 0.52734,0.0137 l 1.9336,-15.76172 1.51367,7.1836 a 0.26460981,0.26460981 0 0 0 0.49023,0.0742 l 2.57227,-4.67188 2.05469,4.83594 a 0.26460981,0.26460981 0 0 0 0.48828,0 l 1.16015,-2.7207 h 5.63477 a 0.26465,0.26465 0 1 0 0,-0.5293 h -5.81055 a 0.26460981,0.26460981 0 0 0 -0.24414,0.16211 l -0.98437,2.30664 -2.02344,-4.76367 a 0.26460981,0.26460981 0 0 0 -0.47656,-0.0254 l -2.49024,4.52734 -1.69531,-8.04492 a 0.26460981,0.26460981 0 0 0 -0.52148,0.0234 l -1.79688,14.64843 -1.97656,-27.10937 a 0.26460981,0.26460981 0 0 0 -0.29102,-0.24414 z"
         style="color:#000000;font-style:normal;font-variant:normal;font-weight:normal;font-stretch:normal;font-size:medium;line-height:normal;font-family:sans-serif;font-variant-ligatures:normal;font-variant-position:normal;font-variant-caps:normal;font-variant-numeric:normal;font-variant-alternates:normal;font-feature-settings:normal;text-indent:0;text-align:start;text-decoration:none;text-decoration-line:none;text-decoration-style:solid;text-decoration-color:#000000;letter-spacing:normal;word-spacing:normal;text-transform:none;writing-mode:lr-tb;direction:ltr;text-orientation:mixed;dominant-baseline:auto;baseline-shift:baseline;text-anchor:start;white-space:normal;shape-padding:0;clip-rule:nonzero;display:inline;overflow:visible;visibility:visible;opacity:1;isolation:auto;mix-blend-mode:normal;color-interpolation:sRGB;color-interpolation-filters:linearRGB;solid-color:#000000;solid-opacity:1;vector-effect:none;fill:#ff1212;fill-opacity:1;fill-rule:nonzero;stroke:none;stroke-width:0.5291667;stroke-linecap:round;stroke-linejoin:round;stroke-miterlimit:4;stroke-dasharray:none;stroke-dashoffset:0;stroke-opacity:1;color-rendering:auto;image-rendering:auto;shape-rendering:auto;text-rendering:auto;enable-background:accumulate" />
    </g>
  </g>
</svg>
