<?xml version="1.0" encoding="UTF-8" standalone="no"?>
<!-- Created with Inkscape (http://www.inkscape.org/) -->

<svg
   xmlns:dc="http://purl.org/dc/elements/1.1/"
   xmlns:cc="http://creativecommons.org/ns#"
   xmlns:rdf="http://www.w3.org/1999/02/22-rdf-syntax-ns#"
   xmlns:svg="http://www.w3.org/2000/svg"
   xmlns="http://www.w3.org/2000/svg"
   xmlns:sodipodi="http://sodipodi.sourceforge.net/DTD/sodipodi-0.dtd"
   xmlns:inkscape="http://www.inkscape.org/namespaces/inkscape"
   width="768"
   height="512"
   viewBox="0 0 203.19999 135.46667"
   version="1.1"
   id="svg8"
   inkscape:version="0.92.4 (5da689c313, 2019-01-14)"
   sodipodi:docname="010_logo_desgin.svg">
  <title
     id="title1073">Logo Design</title>
  <defs
     id="defs2" />
  <sodipodi:namedview
     id="base"
     pagecolor="#ffffff"
     bordercolor="#666666"
     borderopacity="1.0"
     inkscape:pageopacity="0.0"
     inkscape:pageshadow="2"
     inkscape:zoom="1"
     inkscape:cx="456.49068"
     inkscape:cy="262.33084"
     inkscape:document-units="px"
     inkscape:current-layer="layer1"
     showgrid="false"
     units="px"
     width="1122.5197px"
     inkscape:pagecheckerboard="true"
     inkscape:window-width="1920"
     inkscape:window-height="1017"
     inkscape:window-x="1912"
     inkscape:window-y="-8"
     inkscape:window-maximized="1" />
  <metadata
     id="metadata5">
    <rdf:RDF>
      <cc:Work
         rdf:about="">
        <dc:format>image/svg+xml</dc:format>
        <dc:type
           rdf:resource="http://purl.org/dc/dcmitype/StillImage" />
        <dc:title>Logo Design</dc:title>
      </cc:Work>
    </rdf:RDF>
  </metadata>
  <g
     inkscape:label="Layer 1"
     inkscape:groupmode="layer"
     id="layer1"
     transform="translate(0,-161.53334)">
    <path
       style="opacity:1;fill:none;fill-opacity:1;stroke:#000000;stroke-width:0.52916664;stroke-linecap:round;stroke-linejoin:round;stroke-miterlimit:4;stroke-dasharray:none;stroke-opacity:1"
       d="m 69.230536,219.11527 a 35.618832,35.618832 0 0 0 2.28e-4,21.27233"
       id="path1069"
       inkscape:connector-curvature="0" />
    <path
       style="opacity:1;fill:none;fill-opacity:1;stroke:#000000;stroke-width:0.52916664;stroke-linecap:round;stroke-linejoin:round;stroke-miterlimit:4;stroke-dasharray:none;stroke-opacity:1"
       d="m 133.90696,219.01495 a 35.618832,35.618832 0 0 1 -5.9e-4,21.47558"
       id="path979"
       inkscape:connector-curvature="0" />
    <path
       style="color:#000000;font-style:normal;font-variant:normal;font-weight:normal;font-stretch:normal;font-size:medium;line-height:normal;font-family:sans-serif;font-variant-ligatures:normal;font-variant-position:normal;font-variant-caps:normal;font-variant-numeric:normal;font-variant-alternates:normal;font-feature-settings:normal;text-indent:0;text-align:start;text-decoration:none;text-decoration-line:none;text-decoration-style:solid;text-decoration-color:#000000;letter-spacing:normal;word-spacing:normal;text-transform:none;writing-mode:lr-tb;direction:ltr;text-orientation:mixed;dominant-baseline:auto;baseline-shift:baseline;text-anchor:start;white-space:normal;shape-padding:0;clip-rule:nonzero;display:inline;overflow:visible;visibility:visible;opacity:1;isolation:auto;mix-blend-mode:normal;color-interpolation:sRGB;color-interpolation-filters:linearRGB;solid-color:#000000;solid-opacity:1;vector-effect:none;fill:#000000;fill-opacity:1;fill-rule:nonzero;stroke:none;stroke-width:1.05833328;stroke-linecap:round;stroke-linejoin:round;stroke-miterlimit:4;stroke-dasharray:none;stroke-dashoffset:0;stroke-opacity:1;color-rendering:auto;image-rendering:auto;shape-rendering:auto;text-rendering:auto;enable-background:accumulate"
       d="m 90.570181,218.23635 v 0.52916 2.2655 H 73.855439 l 0.293005,0.72657 0.432533,1.07229 h -0.001 l 0.293008,0.72657 2.304766,5.71128 -2.597774,6.43526 h 0.0016 l -0.726054,1.79886 h 16.714742 v 2.53318 l 11.029295,8.15454 11.03137,-8.15454 v -2.53318 h 16.71474 l -3.32228,-8.23412 3.32228,-8.23671 h -0.78496 -15.92978 v -2.79466 z m 1.058849,1.05833 h 19.94349 v 20.20703 l -5.53713,4.09381 -4.43539,-3.27938 -4.435389,3.27938 -5.535581,-4.09381 z m 1.341523,0.82424 a 0.52921955,0.52921955 0 0 0 -0.376722,0.16795 0.52921955,0.52921955 0 0 0 -0.108522,0.54208 l 2.227255,6.11436 a 0.52921955,0.52921955 0 0 0 0.212907,0.28163 l 2.041219,2.04122 -4.358908,4.35891 a 0.52921955,0.52921955 0 0 0 -0.14211,0.49041 l 0.469739,2.11873 a 0.52921955,0.52921955 0 0 0 0.164332,0.28061 l 1.274339,1.27434 a 0.52921955,0.52921955 0 0 0 0.0047,0.004 0.52921955,0.52921955 0 0 0 0.02532,0.0227 0.52921955,0.52921955 0 0 0 0.01292,0.0119 0.52921955,0.52921955 0 0 0 0.03152,0.0227 0.52921955,0.52921955 0 0 0 0.0078,0.005 0.52921955,0.52921955 0 0 0 0.0036,0.002 0.52921955,0.52921955 0 0 0 0.0279,0.017 0.52921955,0.52921955 0 0 0 0.02015,0.0109 0.52921955,0.52921955 0 0 0 0.0248,0.0114 0.52921955,0.52921955 0 0 0 0.02429,0.0103 0.52921955,0.52921955 0 0 0 0.02481,0.009 0.52921955,0.52921955 0 0 0 0.0248,0.008 0.52921955,0.52921955 0 0 0 0.02636,0.007 l 2.119249,0.47077 a 0.52921955,0.52921955 0 0 0 0.489375,-0.14366 l 4.358394,-4.35839 4.35839,4.35839 a 0.52921955,0.52921955 0 0 0 0.48886,0.14418 l 2.11976,-0.47129 a 0.52921955,0.52921955 0 0 0 0.0258,-0.007 0.52921955,0.52921955 0 0 0 0.0248,-0.008 0.52921955,0.52921955 0 0 0 0.0248,-0.009 0.52921955,0.52921955 0 0 0 0.0248,-0.0103 0.52921955,0.52921955 0 0 0 0.0243,-0.0114 0.52921955,0.52921955 0 0 0 0.0207,-0.0114 0.52921955,0.52921955 0 0 0 0.0279,-0.0165 0.52921955,0.52921955 0 0 0 0.004,-0.002 0.52921955,0.52921955 0 0 0 0.008,-0.005 0.52921955,0.52921955 0 0 0 0.0315,-0.0222 0.52921955,0.52921955 0 0 0 0.0129,-0.0119 0.52921955,0.52921955 0 0 0 0.0253,-0.0233 0.52921955,0.52921955 0 0 0 0.004,-0.004 l 1.27434,-1.27486 a 0.52921955,0.52921955 0 0 0 0.16434,-0.2806 l 0.47025,-2.11874 a 0.52921955,0.52921955 0 0 0 -0.14262,-0.49041 l -4.35891,-4.35839 v -5.1e-4 l 2.04122,-2.04071 a 0.52921955,0.52921955 0 0 0 0.2129,-0.28163 l 2.22777,-6.11384 a 0.52921955,0.52921955 0 0 0 -0.10903,-0.5426 0.52921955,0.52921955 0 0 0 -0.37673,-0.16744 0.52921955,0.52921955 0 0 0 -0.19275,0.0326 l -6.11383,2.22726 a 0.52955192,0.52955192 0 0 0 -0.18656,0.11782 0.52921955,0.52921955 0 0 0 -0.005,0.005 l -2.13114,2.13062 -2.13062,-2.13062 a 0.52921955,0.52921955 0 0 0 -0.0057,-0.005 0.52955192,0.52955192 0 0 0 -0.186553,-0.1173 l -6.113838,-2.22777 a 0.52921955,0.52921955 0 0 0 -0.192751,-0.0326 z m 0.895551,1.4149 4.610571,1.68103 -0.334346,1.51464 -1.079522,1.07952 -1.516186,0.3359 z m 15.467786,5.2e-4 -1.68051,4.61057 -1.51619,-0.3359 -1.07952,-1.07952 -0.33435,-1.51464 z m -33.912139,0.55552 h 15.14843 v 0.74001 H 75.720442 Z m 37.209099,0 h 15.14636 l -0.29817,0.74001 h -14.84819 z m -36.482527,1.79679 h 14.421858 v 10.76006 H 76.148323 l 2.169893,-5.37899 z m 36.482527,0 h 14.42186 l -2.16989,5.38107 2.16989,5.37899 h -14.42186 z m -13.227615,0.046 10.235035,10.23503 -0.19792,0.89659 -10.236587,-10.23658 z m 4.394045,5.2e-4 0.19895,0.89452 -1.10019,1.1007 -0.54673,-0.54673 z m -5.173844,1.81177 10.374564,10.37456 -0.54622,0.54674 -10.375081,-10.37456 z m 5.953124,0 0.54674,0.54674 -0.93224,0.93172 -0.54674,-0.54622 v -5.1e-4 z m -7.4166,1.12707 10.23503,10.23503 -0.89348,0.1974 -10.235035,-10.23503 z m 8.88059,0 0.89297,0.19792 -1.44797,1.44797 -0.54519,-0.54519 z m -8.325584,3.14295 0.547253,0.54623 -5.18e-4,5.1e-4 -4.50205,4.50205 -0.197405,-0.89607 z m 1.296043,1.29502 0.546737,0.54673 -4.809008,4.80901 -0.546738,-0.54673 z m 1.295011,1.29604 0.54571,0.54519 -4.153241,4.15323 -0.892968,-0.19792 z m -24.585578,3.09697 h 14.849739 v 0.74052 h -15.14843 z m 36.910408,0 h 14.84767 l 0.29869,0.74052 h -15.14636 z m -11.03085,6.20737 0.49093,1.55081 1.62677,-0.0124 -1.32344,0.94619 0.50592,1.51826 -0.0124,0.009 -1.28778,-0.95085 -1.28778,0.95137 -0.0124,-0.009 0.50591,-1.51878 -1.323432,-0.94619 1.626772,0.0124 z"
       id="rect815"
       inkscape:connector-curvature="0" />
    <text
       xml:space="preserve"
       style="font-style:normal;font-variant:normal;font-weight:normal;font-stretch:semi-condensed;font-size:9.87777805px;line-height:1.25;font-family:'Lucida Console';-inkscape-font-specification:'Lucida Console, Semi-Condensed';font-variant-ligatures:normal;font-variant-caps:normal;font-variant-numeric:normal;font-feature-settings:normal;text-align:start;letter-spacing:0px;word-spacing:0px;writing-mode:lr-tb;text-anchor:start;fill:#000000;fill-opacity:1;stroke:none;stroke-width:0.26458332"
       x="78.184372"
       y="232.8358"
       id="text958"><tspan
         sodipodi:role="line"
         id="tspan956"
         x="78.184372"
         y="232.8358"
         style="font-style:normal;font-variant:normal;font-weight:normal;font-stretch:semi-condensed;font-size:9.87777805px;font-family:'Lucida Console';-inkscape-font-specification:'Lucida Console, Semi-Condensed';font-variant-ligatures:normal;font-variant-caps:normal;font-variant-numeric:normal;font-feature-settings:normal;text-align:start;writing-mode:lr-tb;text-anchor:start;stroke-width:0.26458332">20</tspan></text>
    <text
       id="text962"
       y="232.8358"
       x="112.84479"
       style="font-style:normal;font-variant:normal;font-weight:normal;font-stretch:semi-condensed;font-size:9.87777805px;line-height:1.25;font-family:'Lucida Console';-inkscape-font-specification:'Lucida Console, Semi-Condensed';font-variant-ligatures:normal;font-variant-caps:normal;font-variant-numeric:normal;font-feature-settings:normal;text-align:start;letter-spacing:0px;word-spacing:0px;writing-mode:lr-tb;text-anchor:start;fill:#000000;fill-opacity:1;stroke:none;stroke-width:0.26458332"
       xml:space="preserve"><tspan
         style="font-style:normal;font-variant:normal;font-weight:normal;font-stretch:semi-condensed;font-size:9.87777805px;font-family:'Lucida Console';-inkscape-font-specification:'Lucida Console, Semi-Condensed';font-variant-ligatures:normal;font-variant-caps:normal;font-variant-numeric:normal;font-feature-settings:normal;text-align:start;writing-mode:lr-tb;text-anchor:start;stroke-width:0.26458332"
         y="232.8358"
         x="112.84479"
         id="tspan960"
         sodipodi:role="line">19</tspan></text>
    <g
       aria-label="LOGO DESIGN"
       style="font-style:normal;font-variant:normal;font-weight:normal;font-stretch:semi-condensed;font-size:9.87777805px;line-height:1.25;font-family:'Lucida Console';-inkscape-font-specification:'Lucida Console, Semi-Condensed';font-variant-ligatures:normal;font-variant-caps:normal;font-variant-numeric:normal;font-feature-settings:normal;text-align:start;letter-spacing:1.05833328px;word-spacing:0px;writing-mode:lr-tb;text-anchor:start;fill:#000000;fill-opacity:1;stroke:none;stroke-width:0.26458332"
       id="text983">
      <path
         d="m 72.005993,216.97164 -5.528355,-2.78022 0.426893,-0.84886 4.890633,2.45951 1.497377,-2.97747 0.637721,0.32071 z"
         style="font-style:normal;font-variant:normal;font-weight:normal;font-stretch:semi-condensed;font-size:9.87777805px;font-family:'Lucida Console';-inkscape-font-specification:'Lucida Console, Semi-Condensed';font-variant-ligatures:normal;font-variant-caps:normal;font-variant-numeric:normal;font-feature-settings:normal;text-align:start;letter-spacing:1.05833328px;writing-mode:lr-tb;text-anchor:start;stroke-width:0.26458332"
         id="path1000" />
      <path
         d="m 72.580013,209.5047 q -1.146866,-0.93658 -1.369156,-2.05217 -0.222976,-1.12238 0.551912,-2.07126 0.774888,-0.94887 1.916136,-0.95094 1.140563,-0.009 2.287429,0.92772 1.150602,0.93962 1.373577,2.062 0.22229,1.1156 -0.552598,2.06447 -0.774887,0.94887 -1.91545,0.95773 -1.141248,0.002 -2.29185,-0.93755 z m 0.640655,-0.78451 q 0.941402,0.76879 1.724711,0.85426 0.782625,0.0787 1.289048,-0.54144 0.506423,-0.62013 0.272931,-1.37125 -0.237227,-0.75416 -1.178629,-1.52295 -0.937666,-0.76573 -1.72029,-0.84442 -0.78636,-0.0817 -1.292783,0.53839 -0.506423,0.62013 -0.269196,1.3743 0.236542,0.74738 1.174208,1.51311 z"
         style="font-style:normal;font-variant:normal;font-weight:normal;font-stretch:semi-condensed;font-size:9.87777805px;font-family:'Lucida Console';-inkscape-font-specification:'Lucida Console, Semi-Condensed';font-variant-ligatures:normal;font-variant-caps:normal;font-variant-numeric:normal;font-feature-settings:normal;text-align:start;letter-spacing:1.05833328px;writing-mode:lr-tb;text-anchor:start;stroke-width:0.26458332"
         id="path1002" />
      <path
         d="m 79.803205,198.24123 0.539905,0.68601 q -1.021885,0.24572 -1.673783,0.75878 -0.754231,0.5936 -0.807651,1.53175 -0.04963,0.93516 0.624507,1.79173 0.677119,0.86035 1.662189,0.98119 0.982086,0.11704 1.83486,-0.55411 0.193295,-0.15213 0.456919,-0.43326 l -1.011205,-1.28485 -0.913415,0.71888 -0.44147,-0.56093 1.660066,-1.30652 1.777811,2.25891 q -0.570905,0.84213 -1.253124,1.37905 -1.129452,0.88891 -2.390039,0.74554 -1.256797,-0.14635 -2.139736,-1.26822 -0.90382,-1.1484 -0.759647,-2.41576 0.144174,-1.26736 1.281206,-2.16224 0.644318,-0.50709 1.552607,-0.86595 z"
         style="font-style:normal;font-variant:normal;font-weight:normal;font-stretch:semi-condensed;font-size:9.87777805px;font-family:'Lucida Console';-inkscape-font-specification:'Lucida Console, Semi-Condensed';font-variant-ligatures:normal;font-variant-caps:normal;font-variant-numeric:normal;font-feature-settings:normal;text-align:start;letter-spacing:1.05833328px;writing-mode:lr-tb;text-anchor:start;stroke-width:0.26458332"
         id="path1004" />
      <path
         d="m 83.856984,199.1449 q -0.643121,-1.33374 -0.372718,-2.43866 0.272652,-1.11135 1.376141,-1.64345 1.103489,-0.53209 2.138514,-0.0513 1.037275,0.47437 1.680396,1.80811 0.645216,1.33809 0.372563,2.44945 -0.270403,1.10492 -1.373892,1.63701 -1.103488,0.53209 -2.140763,0.0577 -1.035026,-0.48081 -1.680241,-1.8189 z m 0.912333,-0.43992 q 0.527904,1.0948 1.201555,1.50355 0.6759,0.40231 1.397078,0.0546 0.721178,-0.34774 0.827277,-1.12712 0.104005,-0.78373 -0.423899,-1.87853 -0.525809,-1.09046 -1.201709,-1.49276 -0.677995,-0.40666 -1.399173,-0.0589 -0.721178,0.34775 -0.825183,1.13147 -0.101755,0.77729 0.424054,1.86774 z"
         style="font-style:normal;font-variant:normal;font-weight:normal;font-stretch:semi-condensed;font-size:9.87777805px;font-family:'Lucida Console';-inkscape-font-specification:'Lucida Console, Semi-Condensed';font-variant-ligatures:normal;font-variant-caps:normal;font-variant-numeric:normal;font-feature-settings:normal;text-align:start;letter-spacing:1.05833328px;writing-mode:lr-tb;text-anchor:start;stroke-width:0.26458332"
         id="path1006" />
      <path
         d="m 98.819683,197.59891 -0.08414,-6.18751 1.866383,-0.0254 q 3.08652,-0.042 3.12691,2.92881 0.0187,1.37447 -0.64012,2.23238 -0.41229,0.54102 -1.02645,0.7809 -0.6094,0.235 -1.63181,0.2489 z m 0.940364,-0.72667 0.477443,-0.007 q 1.36,-0.0185 1.92656,-0.56643 0.57137,-0.54801 0.55406,-1.8212 -0.0176,-1.29248 -0.54596,-1.84001 -0.52846,-0.55235 -1.74378,-0.53583 l -0.733048,0.01 z"
         style="font-style:normal;font-variant:normal;font-weight:normal;font-stretch:semi-condensed;font-size:9.87777805px;font-family:'Lucida Console';-inkscape-font-specification:'Lucida Console, Semi-Condensed';font-variant-ligatures:normal;font-variant-caps:normal;font-variant-numeric:normal;font-feature-settings:normal;text-align:start;letter-spacing:1.05833328px;writing-mode:lr-tb;text-anchor:start;stroke-width:0.26458332"
         id="path1008" />
      <path
         d="m 106.24867,197.84372 1.26515,-6.05737 4.09333,0.85494 -0.14595,0.69874 -3.16324,-0.66068 -0.38359,1.83657 2.68168,0.5601 -0.14594,0.69874 -2.68168,-0.56009 -0.44374,2.12456 3.38042,0.70604 -0.14594,0.69875 z"
         style="font-style:normal;font-variant:normal;font-weight:normal;font-stretch:semi-condensed;font-size:9.87777805px;font-family:'Lucida Console';-inkscape-font-specification:'Lucida Console, Semi-Condensed';font-variant-ligatures:normal;font-variant-caps:normal;font-variant-numeric:normal;font-feature-settings:normal;text-align:start;letter-spacing:1.05833328px;writing-mode:lr-tb;text-anchor:start;stroke-width:0.26458332"
         id="path1010" />
      <path
         d="m 119.01108,195.67041 -0.33808,0.75227 q -0.78857,-0.79857 -1.53204,-1.13271 -1.17461,-0.52789 -1.53049,0.26398 -0.14433,0.32114 -0.0133,0.61797 0.13297,0.29242 0.63395,0.7661 l 0.46731,0.44269 0.44685,0.41762 q 1.03364,0.98275 0.57099,2.01218 -0.35193,0.78307 -1.19258,0.97106 -0.83427,0.18557 -1.8857,-0.28696 -0.73028,-0.32821 -1.74691,-1.16054 l 0.38554,-0.85786 q 0.91931,1.03712 1.68038,1.37917 0.6423,0.28866 1.13773,0.20991 0.49741,-0.0832 0.68919,-0.50988 0.14631,-0.32554 0.003,-0.61752 -0.13934,-0.29 -0.73097,-0.86788 l -0.4858,-0.47214 q -0.72233,-0.71065 -0.90884,-1.20163 -0.1821,-0.489 0.071,-1.05211 0.34205,-0.76107 1.04459,-0.94768 0.70694,-0.18463 1.64398,0.2365 0.76108,0.34204 1.59071,1.03746 z"
         style="font-style:normal;font-variant:normal;font-weight:normal;font-stretch:semi-condensed;font-size:9.87777805px;font-family:'Lucida Console';-inkscape-font-specification:'Lucida Console, Semi-Condensed';font-variant-ligatures:normal;font-variant-caps:normal;font-variant-numeric:normal;font-feature-settings:normal;text-align:start;letter-spacing:1.05833328px;writing-mode:lr-tb;text-anchor:start;stroke-width:0.26458332"
         id="path1012" />
      <path
         d="m 119.12977,202.6727 0.42659,-0.57233 1.33416,0.9944 2.84487,-3.81686 -1.33417,-0.99441 0.42659,-0.57233 3.43402,2.55951 -0.42659,0.57234 -1.33416,-0.99441 -2.84487,3.81687 1.33416,0.9944 -0.42658,0.57234 z"
         style="font-style:normal;font-variant:normal;font-weight:normal;font-stretch:semi-condensed;font-size:9.87777805px;font-family:'Lucida Console';-inkscape-font-specification:'Lucida Console, Semi-Condensed';font-variant-ligatures:normal;font-variant-caps:normal;font-variant-numeric:normal;font-feature-settings:normal;text-align:start;letter-spacing:1.05833328px;writing-mode:lr-tb;text-anchor:start;stroke-width:0.26458332"
         id="path1014" />
      <path
         d="m 132.12338,206.58921 -0.66156,0.5696 q -0.29048,-1.01008 -0.83175,-1.63875 -0.62624,-0.72736 -1.56583,-0.73941 -0.93645,-0.008 -1.76249,0.70281 -0.8297,0.71435 -0.90704,1.70379 -0.0737,0.98628 0.63438,1.80867 0.16049,0.18641 0.45296,0.4374 l 1.23907,-1.06681 -0.75841,-0.88087 0.54095,-0.46574 1.37835,1.60091 -2.17842,1.87557 q -0.86645,-0.53326 -1.4329,-1.19117 -0.93778,-1.08921 -0.85007,-2.35489 0.0909,-1.26202 1.17276,-2.19351 1.10748,-0.95352 2.37996,-0.8653 1.27248,0.0882 2.21656,1.18474 0.53497,0.62136 0.93348,1.51296 z"
         style="font-style:normal;font-variant:normal;font-weight:normal;font-stretch:semi-condensed;font-size:9.87777805px;font-family:'Lucida Console';-inkscape-font-specification:'Lucida Console, Semi-Condensed';font-variant-ligatures:normal;font-variant-caps:normal;font-variant-numeric:normal;font-feature-settings:normal;text-align:start;letter-spacing:1.05833328px;writing-mode:lr-tb;text-anchor:start;stroke-width:0.26458332"
         id="path1016" />
      <path
         d="m 128.86785,212.51096 5.46808,-2.93797 0.4246,0.79026 -2.61946,4.63234 0.005,0.008 3.94704,-2.12073 0.36753,0.68404 -5.45108,2.92884 -0.41547,-0.77326 2.64008,-4.66531 -0.007,-0.0128 -3.99378,2.14584 z"
         style="font-style:normal;font-variant:normal;font-weight:normal;font-stretch:semi-condensed;font-size:9.87777805px;font-family:'Lucida Console';-inkscape-font-specification:'Lucida Console, Semi-Condensed';font-variant-ligatures:normal;font-variant-caps:normal;font-variant-numeric:normal;font-feature-settings:normal;text-align:start;letter-spacing:1.05833328px;writing-mode:lr-tb;text-anchor:start;stroke-width:0.26458332"
         id="path1018" />
    </g>
    <g
       aria-label="WITH INKSCAPE"
       style="font-style:normal;font-variant:normal;font-weight:normal;font-stretch:semi-condensed;font-size:9.87777805px;line-height:1.25;font-family:'Lucida Console';-inkscape-font-specification:'Lucida Console, Semi-Condensed';font-variant-ligatures:normal;font-variant-caps:normal;font-variant-numeric:normal;font-feature-settings:normal;text-align:start;letter-spacing:1.05833328px;word-spacing:0px;writing-mode:lr-tb;text-anchor:start;fill:#000000;fill-opacity:1;stroke:none;stroke-width:0.26458332"
       id="text991">
      <path
         d="m 66.380555,247.05491 4.965117,-3.80639 0.392925,0.70864 -4.131646,3.15123 0.007,0.0127 3.786083,-1.07903 0.444379,0.80144 -2.877111,2.59901 0.0047,0.008 4.831796,-1.76914 0.350826,0.63271 -5.90533,2.11071 -0.500512,-0.90267 2.762263,-2.50776 -0.0047,-0.008 -3.59255,1.01032 z"
         style="font-style:normal;font-variant:normal;font-weight:normal;font-stretch:semi-condensed;font-size:9.87777805px;font-family:'Lucida Console';-inkscape-font-specification:'Lucida Console, Semi-Condensed';font-variant-ligatures:normal;font-variant-caps:normal;font-variant-numeric:normal;font-feature-settings:normal;text-align:start;letter-spacing:1.05833328px;writing-mode:lr-tb;text-anchor:start;stroke-width:0.26458332"
         id="path1024" />
      <path
         d="m 69.915993,252.93036 0.552518,-0.45196 1.053556,1.28797 3.684699,-3.01409 -1.053557,-1.28796 0.552519,-0.45196 2.711762,3.31511 -0.552519,0.45196 -1.053556,-1.28797 -3.684698,3.01409 1.053556,1.28796 -0.552518,0.45196 z"
         style="font-style:normal;font-variant:normal;font-weight:normal;font-stretch:semi-condensed;font-size:9.87777805px;font-family:'Lucida Console';-inkscape-font-specification:'Lucida Console, Semi-Condensed';font-variant-ligatures:normal;font-variant-caps:normal;font-variant-numeric:normal;font-feature-settings:normal;text-align:start;letter-spacing:1.05833328px;writing-mode:lr-tb;text-anchor:start;stroke-width:0.26458332"
         id="path1026" />
      <path
         d="m 75.816896,259.28328 3.546822,-4.16984 -1.811216,-1.5406 0.462493,-0.54373 4.349857,3.69994 -0.462493,0.54373 -1.811216,-1.5406 -3.546822,4.16984 z"
         style="font-style:normal;font-variant:normal;font-weight:normal;font-stretch:semi-condensed;font-size:9.87777805px;font-family:'Lucida Console';-inkscape-font-specification:'Lucida Console, Semi-Condensed';font-variant-ligatures:normal;font-variant-caps:normal;font-variant-numeric:normal;font-feature-settings:normal;text-align:start;letter-spacing:1.05833328px;writing-mode:lr-tb;text-anchor:start;stroke-width:0.26458332"
         id="path1028" />
      <path
         d="m 79.949066,262.5034 3.104372,-5.35306 0.821942,0.47667 -1.357406,2.34065 2.265557,1.31386 1.357406,-2.34066 0.826115,0.47908 -3.104372,5.35306 -0.826115,-0.47908 1.388862,-2.3949 -2.265557,-1.31386 -1.388862,2.3949 z"
         style="font-style:normal;font-variant:normal;font-weight:normal;font-stretch:semi-condensed;font-size:9.87777805px;font-family:'Lucida Console';-inkscape-font-specification:'Lucida Console, Semi-Condensed';font-variant-ligatures:normal;font-variant-caps:normal;font-variant-numeric:normal;font-feature-settings:normal;text-align:start;letter-spacing:1.05833328px;writing-mode:lr-tb;text-anchor:start;stroke-width:0.26458332"
         id="path1030" />
      <path
         d="m 92.925986,268.03261 0.120056,-0.70366 1.640278,0.27987 0.800647,-4.69263 -1.640278,-0.27986 0.120056,-0.70365 4.221933,0.72034 -0.120057,0.70365 -1.640277,-0.27986 -0.800647,4.69262 1.640278,0.27986 -0.120057,0.70366 z"
         style="font-style:normal;font-variant:normal;font-weight:normal;font-stretch:semi-condensed;font-size:9.87777805px;font-family:'Lucida Console';-inkscape-font-specification:'Lucida Console, Semi-Condensed';font-variant-ligatures:normal;font-variant-caps:normal;font-variant-numeric:normal;font-feature-settings:normal;text-align:start;letter-spacing:1.05833328px;writing-mode:lr-tb;text-anchor:start;stroke-width:0.26458332"
         id="path1032" />
      <path
         d="m 99.763178,268.97352 -0.06469,-6.20704 0.897055,-0.009 2.88757,4.47013 0.01,-10e-5 -0.0467,-4.48044 0.77648,-0.008 0.0645,6.18775 -0.87776,0.009 -2.90721,-4.5037 -0.0145,1.6e-4 0.0473,4.5335 z"
         style="font-style:normal;font-variant:normal;font-weight:normal;font-stretch:semi-condensed;font-size:9.87777805px;font-family:'Lucida Console';-inkscape-font-specification:'Lucida Console, Semi-Condensed';font-variant-ligatures:normal;font-variant-caps:normal;font-variant-numeric:normal;font-feature-settings:normal;text-align:start;letter-spacing:1.05833328px;writing-mode:lr-tb;text-anchor:start;stroke-width:0.26458332"
         id="path1034" />
      <path
         d="m 106.88322,268.65577 -1.17345,-6.07581 0.93292,-0.18018 0.57529,2.97871 1.96774,-3.46985 0.94239,-0.18201 -1.89971,3.33882 3.54198,2.64644 -1.11761,0.21585 -3.43479,-2.54925 0.59816,3.0971 z"
         style="font-style:normal;font-variant:normal;font-weight:normal;font-stretch:semi-condensed;font-size:9.87777805px;font-family:'Lucida Console';-inkscape-font-specification:'Lucida Console, Semi-Condensed';font-variant-ligatures:normal;font-variant-caps:normal;font-variant-numeric:normal;font-feature-settings:normal;text-align:start;letter-spacing:1.05833328px;writing-mode:lr-tb;text-anchor:start;stroke-width:0.26458332"
         id="path1036" />
      <path
         d="m 115.31866,259.98592 0.29817,0.76897 q -1.1223,6.5e-4 -1.88227,0.29533 -1.20068,0.46558 -0.88681,1.27502 0.12729,0.32827 0.4306,0.44345 0.30157,0.11067 0.99061,0.0866 l 0.64333,-0.0219 0.61112,-0.0249 q 1.42552,-0.0458 1.83355,1.00648 0.31038,0.80045 -0.1461,1.53096 -0.45373,0.72428 -1.52849,1.14103 -0.74648,0.28945 -2.05297,0.42877 l -0.34003,-0.8769 q 1.38395,0.0738 2.16191,-0.22788 0.65655,-0.25458 0.94839,-0.6626 0.29009,-0.41253 0.12095,-0.84872 -0.12903,-0.33278 -0.43785,-0.43547 -0.30432,-0.10444 -1.1312,-0.089 l -0.67729,0.0143 q -1.01318,0.0152 -1.4937,-0.19676 -0.47603,-0.21374 -0.69923,-0.78934 -0.30166,-0.77796 0.0588,-1.40918 0.36499,-0.63296 1.32283,-1.00437 0.77796,-0.30167 1.85566,-0.404 z"
         style="font-style:normal;font-variant:normal;font-weight:normal;font-stretch:semi-condensed;font-size:9.87777805px;font-family:'Lucida Console';-inkscape-font-specification:'Lucida Console, Semi-Condensed';font-variant-ligatures:normal;font-variant-caps:normal;font-variant-numeric:normal;font-feature-settings:normal;text-align:start;letter-spacing:1.05833328px;writing-mode:lr-tb;text-anchor:start;stroke-width:0.26458332"
         id="path1038" />
      <path
         d="m 124.13959,261.68997 q -0.63744,0.78926 -1.35829,1.22834 -1.26045,0.76778 -2.48988,0.48318 -1.23195,-0.28872 -1.98216,-1.52034 -0.76025,-1.2481 -0.4658,-2.48918 0.29445,-1.24108 1.53019,-1.9938 0.70025,-0.42655 1.64488,-0.6744 l 0.45415,0.74556 q -1.04392,0.12196 -1.7524,0.55352 -0.81971,0.49931 -0.98475,1.42437 -0.16093,0.92255 0.40613,1.85347 0.57206,0.93916 1.53315,1.17262 0.96109,0.23346 1.90025,-0.33861 0.56844,-0.34625 1.15806,-1.11203 z"
         style="font-style:normal;font-variant:normal;font-weight:normal;font-stretch:semi-condensed;font-size:9.87777805px;font-family:'Lucida Console';-inkscape-font-specification:'Lucida Console, Semi-Condensed';font-variant-ligatures:normal;font-variant-caps:normal;font-variant-numeric:normal;font-feature-settings:normal;text-align:start;letter-spacing:1.05833328px;writing-mode:lr-tb;text-anchor:start;stroke-width:0.26458332"
         id="path1040" />
      <path
         d="m 125.48024,260.97594 -2.28912,-6.24567 0.70995,-0.63148 5.93617,3.0017 -0.75319,0.66995 -1.46503,-0.76895 -2.11183,1.87842 0.5857,1.55109 z m -0.23484,-2.81852 1.68659,-1.50017 -2.81187,-1.45584 z"
         style="font-style:normal;font-variant:normal;font-weight:normal;font-stretch:semi-condensed;font-size:9.87777805px;font-family:'Lucida Console';-inkscape-font-specification:'Lucida Console, Semi-Condensed';font-variant-ligatures:normal;font-variant-caps:normal;font-variant-numeric:normal;font-feature-settings:normal;text-align:start;letter-spacing:1.05833328px;writing-mode:lr-tb;text-anchor:start;stroke-width:0.26458332"
         id="path1042" />
      <path
         d="m 131.30253,255.40331 -4.87475,-3.81172 1.23888,-1.58439 q 0.66252,-0.84728 1.09674,-1.0894 0.89552,-0.48754 1.8074,0.22549 0.76749,0.60013 0.738,1.5383 -0.0265,0.93438 -0.84354,1.97924 l -0.42781,0.54713 1.85035,1.44685 z m -1.82741,-2.63505 0.36543,-0.46734 q 1.18838,-1.51979 0.12452,-2.35166 -0.44834,-0.35057 -0.86791,-0.21332 -0.41659,0.13344 -0.93948,0.80215 l -0.5823,0.7447 z"
         style="font-style:normal;font-variant:normal;font-weight:normal;font-stretch:semi-condensed;font-size:9.87777805px;font-family:'Lucida Console';-inkscape-font-specification:'Lucida Console, Semi-Condensed';font-variant-ligatures:normal;font-variant-caps:normal;font-variant-numeric:normal;font-feature-settings:normal;text-align:start;letter-spacing:1.05833328px;writing-mode:lr-tb;text-anchor:start;stroke-width:0.26458332"
         id="path1044" />
      <path
         d="m 135.36435,249.75019 -5.47554,-2.88284 1.9481,-3.70015 0.63163,0.33255 -1.50545,2.8594 1.66016,0.87407 1.27627,-2.4241 0.63163,0.33255 -1.27627,2.42409 1.92049,1.01113 1.60882,-3.05572 0.63163,0.33255 z"
         style="font-style:normal;font-variant:normal;font-weight:normal;font-stretch:semi-condensed;font-size:9.87777805px;font-family:'Lucida Console';-inkscape-font-specification:'Lucida Console, Semi-Condensed';font-variant-ligatures:normal;font-variant-caps:normal;font-variant-numeric:normal;font-feature-settings:normal;text-align:start;letter-spacing:1.05833328px;writing-mode:lr-tb;text-anchor:start;stroke-width:0.26458332"
         id="path1046" />
    </g>
  </g>
</svg>
